<svg width="44" height="32" viewBox="0 0 44 32" fill="none" xmlns="http://www.w3.org/2000/svg">
<path fill-rule="evenodd" clip-rule="evenodd" d="M1 29.3333C1 28.8913 1.20114 28.4674 1.55916 28.1548C1.91718 27.8423 2.40277 27.6667 2.90909 27.6667H41.0909C41.5972 27.6667 42.0828 27.8423 42.4408 28.1548C42.7989 28.4674 43 28.8913 43 29.3333C43 29.7754 42.7989 30.1993 42.4408 30.5118C42.0828 30.8244 41.5972 31 41.0909 31H2.90909C2.40277 31 1.91718 30.8244 1.55916 30.5118C1.20114 30.1993 1 29.7754 1 29.3333ZM1 16C1 15.558 1.20114 15.134 1.55916 14.8215C1.91718 14.5089 2.40277 14.3333 2.90909 14.3333H41.0909C41.5972 14.3333 42.0828 14.5089 42.4408 14.8215C42.7989 15.134 43 15.558 43 16C43 16.442 42.7989 16.866 42.4408 17.1785C42.0828 17.4911 41.5972 17.6667 41.0909 17.6667H2.90909C2.40277 17.6667 1.91718 17.4911 1.55916 17.1785C1.20114 16.866 1 16.442 1 16ZM1 2.66667C1 2.22464 1.20114 1.80072 1.55916 1.48816C1.91718 1.1756 2.40277 1 2.90909 1H41.0909C41.5972 1 42.0828 1.1756 42.4408 1.48816C42.7989 1.80072 43 2.22464 43 2.66667C43 3.10869 42.7989 3.53262 42.4408 3.84518C42.0828 4.15774 41.5972 4.33333 41.0909 4.33333H2.90909C2.40277 4.33333 1.91718 4.15774 1.55916 3.84518C1.20114 3.53262 1 3.10869 1 2.66667Z" fill="#84A2FF" stroke="#84A2FF" stroke-width="2"/>
</svg>
