<svg width="24" height="24" viewBox="0 0 24 24" fill="none" xmlns="http://www.w3.org/2000/svg">
<path d="M21.09 17.9101C21.0893 17.1147 20.7728 16.3522 20.21 15.7901L15.91 11.5001L17.71 9.71013C17.7534 9.66172 17.7903 9.60795 17.82 9.55013C17.8629 9.49592 17.8966 9.43514 17.92 9.37013C17.92 9.32013 17.92 9.27013 17.92 9.22013C17.958 9.15144 17.985 9.0772 18 9.00013C18.0041 8.93686 18.0041 8.8734 18 8.81013C17.9845 8.74872 17.9645 8.68855 17.94 8.63013C17.9108 8.56589 17.8739 8.50545 17.83 8.45013L17.75 8.33013C17.7016 8.28678 17.6478 8.24981 17.59 8.22013C17.5358 8.1773 17.475 8.14353 17.41 8.12013L5.41003 4.12013C5.23545 4.04368 5.04267 4.0187 4.85438 4.04814C4.66609 4.07757 4.49013 4.1602 4.34723 4.2863C4.20433 4.41239 4.10043 4.57669 4.04777 4.75985C3.99512 4.94301 3.9959 5.1374 4.05003 5.32013L8.05003 17.3201C8.07342 17.3851 8.10719 17.4459 8.15002 17.5001C8.1797 17.5579 8.21667 17.6117 8.26003 17.6601L8.38003 17.7401L8.56003 17.8601L8.74003 17.9101L9.00003 18.0001C9.06968 18.01 9.14037 18.01 9.21003 18.0001H9.36002C9.42503 17.9767 9.48582 17.943 9.54003 17.9001C9.59784 17.8705 9.65161 17.8335 9.70003 17.7901L10.7 16.7901L11.49 15.9901L15.78 20.2901C16.0587 20.5698 16.3899 20.7917 16.7546 20.9431C17.1192 21.0946 17.5102 21.1725 17.905 21.1725C18.2999 21.1725 18.6908 21.0946 19.0555 20.9431C19.4201 20.7917 19.7513 20.5698 20.03 20.2901L20.2 20.1101C20.4902 19.8232 20.7188 19.4802 20.8718 19.1019C21.0248 18.7236 21.0991 18.3181 21.09 17.9101ZM18.79 18.6201L18.62 18.7901C18.5274 18.8846 18.417 18.9598 18.2951 19.0113C18.1732 19.0628 18.0423 19.0896 17.91 19.0901C17.6463 19.0864 17.3947 18.9785 17.21 18.7901L12.33 13.9101H12.26C12.26 13.9101 12.26 13.8501 12.26 13.8301C12.1671 13.7364 12.0565 13.662 11.9346 13.6112C11.8127 13.5605 11.682 13.5343 11.55 13.5343C11.418 13.5343 11.2873 13.5605 11.1654 13.6112C11.0436 13.662 10.933 13.7364 10.84 13.8301L10.34 14.3301L9.49003 15.1901L6.58003 6.58013L15.15 9.44013L13.79 10.7901C13.6963 10.8831 13.6219 10.9937 13.5711 11.1156C13.5204 11.2374 13.4942 11.3681 13.4942 11.5001C13.4942 11.6321 13.5204 11.7628 13.5711 11.8847C13.6219 12.0066 13.6963 12.1172 13.79 12.2101L18.79 17.2101C18.9763 17.3975 19.0808 17.6509 19.0808 17.9151C19.0808 18.1793 18.9763 18.4328 18.79 18.6201Z" fill="white"/>
</svg>
