<svg width="306" height="214" viewBox="0 0 306 214" fill="none" xmlns="http://www.w3.org/2000/svg">
<path d="M276.21 20.724C277.771 44.6107 274.376 68.5607 266.237 91.0633C258.264 113.225 246.006 133.593 230.167 151C213.708 169.012 193.511 183.193 170.995 192.545C148.114 201.975 123.516 206.508 98.7809 205.853C73.6414 205.223 48.5373 199.525 25.8831 188.489C23.1636 187.169 20.4859 185.765 17.85 184.279C16.2564 183.392 14.8642 182.352 14.0359 180.647C13.4027 179.31 13.193 177.383 13.8776 176.019C15.4578 172.983 19.7344 171.922 22.6962 173.569C27.9721 176.522 33.4109 179.172 38.9864 181.507C41.7171 182.65 44.4673 183.714 47.2372 184.698L49.3715 185.443C49.9177 185.628 52.2317 186.296 49.9518 185.631C51.4057 186.072 52.8484 186.515 54.2743 186.958C60.0691 188.658 65.9509 190.043 71.8942 191.107C74.7327 191.619 77.5915 192.059 80.4704 192.428C81.9649 192.617 83.4696 192.793 84.9718 192.942C85.4902 193 87.8604 193.136 85.6555 193.019C86.4773 193.062 87.3034 193.156 88.1211 193.216C100.052 194.092 112.041 193.745 123.901 192.179C124.57 192.088 125.268 191.938 125.942 191.897C123.943 192.017 126.211 191.874 126.71 191.769C128.268 191.523 129.825 191.254 131.38 190.963C134.279 190.422 137.164 189.799 140.034 189.094C145.903 187.682 151.693 185.955 157.377 183.92C158.669 183.459 159.954 182.977 161.202 182.463C161.841 182.216 162.48 181.969 163.12 181.734L164.26 181.269L165.023 180.955L164.287 181.261C165.647 180.992 167.172 180.025 168.437 179.448C169.806 178.822 171.15 178.181 172.527 177.515C177.893 174.894 183.106 171.97 188.142 168.758C190.503 167.252 192.814 165.681 195.074 164.044C196.233 163.21 197.383 162.358 198.523 161.488L200.074 160.293L200.839 159.662L201.299 159.301L200.987 159.548C201.023 159.307 202.29 158.487 202.493 158.288C202.994 157.872 203.494 157.456 203.988 157.03C205.177 156.02 206.353 154.992 207.516 153.947C209.542 152.123 211.526 150.246 213.468 148.316C221.555 140.275 228.473 131.424 235.018 122.112C233.951 123.628 235.177 121.861 235.431 121.467C235.861 120.812 236.284 120.154 236.701 119.492C237.463 118.296 238.186 117.059 238.95 115.823C240.421 113.36 241.831 110.862 243.179 108.327C245.814 103.375 248.202 98.3064 250.344 93.1216C252.485 87.9369 254.384 82.6635 256.04 77.3015C256.487 75.929 256.855 74.552 257.25 73.1725C257.615 71.8863 256.968 74.2314 257.194 73.3753C257.281 73.0626 257.367 72.7499 257.447 72.4321C257.648 71.6611 257.843 70.9037 258.031 70.1601C258.727 67.383 259.352 64.5875 259.905 61.7735C262.111 50.6466 263.152 39.3188 263.011 27.9744C263 27.3251 262.99 26.6758 262.974 26.0213C262.955 25.7968 262.767 24.2014 262.908 24.0649L262.942 24.8537L262.909 24.0706C262.887 23.8124 262.864 23.5485 262.842 23.2903C262.803 22.5077 262.754 21.7261 262.698 20.945C262.588 19.2582 262.742 17.8259 263.924 16.5376C265.087 15.3659 266.664 14.701 268.314 14.687C271.442 14.7139 275.949 16.9467 276.193 20.5953L276.21 20.724Z" fill="#FDF4E5"/>
<path d="M286.836 59.383L272.461 23.8595L268.406 13.842L272.696 10.3547C267.598 20.0399 262.497 29.7255 257.393 39.4114L253.076 47.6051C252.479 48.7417 251.611 50.2689 250.552 51.0831C250.049 51.4709 249.181 51.9408 248.804 51.0967C248.357 50.0889 248.715 48.6052 248.96 47.6344C249.419 45.8772 250.081 44.1794 250.931 42.5753L266.24 13.5182C267.677 10.7908 269.116 8.05955 270.556 5.3244C270.813 4.82755 273.952 -0.370824 274.845 1.83145L289.22 37.3549L293.224 47.3711C293.625 48.3715 293.296 49.8696 293.068 50.8333C292.636 52.5994 291.973 54.3005 291.097 55.8924C290.431 57.0801 289.683 58.5631 288.573 59.3703C288.039 59.7325 287.195 60.2852 286.83 59.3834L286.836 59.383Z" fill="#FDF4E5"/>
</svg>
