<svg width="329" height="214" viewBox="0 0 329 214" fill="none" xmlns="http://www.w3.org/2000/svg">
<path d="M21.7423 64.8251C24.3421 63.5735 26.9581 62.3852 29.5904 61.2603L29.9044 61.1285C30.1916 61.0055 30.4823 60.8896 30.7676 60.7719C31.4154 60.5031 32.0649 60.2469 32.7216 59.9871C34.1014 59.4483 35.4793 58.915 36.8481 58.4084C42.2572 56.4232 47.7496 54.6957 53.3253 53.2258C64.1357 50.3786 75.1792 48.5055 86.3236 47.6287C109.295 45.8756 132.394 48.27 154.517 54.6974C175.905 60.9893 195.922 71.2356 213.534 84.9053C248.418 111.951 272.745 150.347 282.302 193.445C282.711 195.342 283.275 198.309 283.682 200.738C283.853 201.759 284.146 202.649 285.32 202.817C286.494 202.985 288.015 202.034 288.811 201.35C290.234 200.195 291.414 198.77 292.283 197.156C292.919 195.926 293.787 194.262 293.549 192.841C289.818 170.705 282.165 149.413 270.95 129.968C259.727 110.485 245.225 93.0868 228.084 78.538C210.669 63.8423 190.663 52.5278 169.094 45.1763C147.095 37.6943 123.913 34.2919 100.691 35.1362C76.964 35.9562 53.5905 41.1394 31.7399 50.4263C29.0861 51.5558 26.4641 52.75 23.8738 54.0088C21.0585 55.3542 18.4044 59.0086 17.9569 62.0663C17.8078 63.0795 17.6704 64.4256 18.6274 65.1234C19.5844 65.8213 20.839 65.2816 21.7208 64.8178L21.7423 64.8251Z" fill="#FDF4E5"/>
<path d="M259.842 188.689L285.298 211.364C285.449 211.615 285.672 211.813 285.939 211.933C286.205 212.053 286.502 212.089 286.79 212.036C287.546 211.865 288.237 211.478 288.779 210.922C290.482 209.295 291.709 207.234 292.329 204.961L302.191 170.272L304.964 160.518C305.337 159.199 305.76 157.472 305.411 156.079C305.194 155.228 304.586 154.278 303.57 154.469C302.338 154.682 301.276 155.742 300.562 156.675C299.425 158.117 298.57 159.759 298.041 161.517L288.178 196.206L285.404 205.966L292.422 199.582L266.967 176.908C266.868 176.712 266.715 176.549 266.526 176.438C266.336 176.328 266.119 176.275 265.9 176.286C265.662 176.225 265.412 176.22 265.172 176.271C264.931 176.323 264.706 176.429 264.513 176.583C263.292 177.218 262.152 178.717 261.492 179.861C260.523 181.42 259.859 183.149 259.535 184.955L259.386 186.459C259.331 187.229 259.502 187.998 259.878 188.672L259.842 188.689Z" fill="#FDF4E5"/>
</svg>
