<svg width="22" height="21" viewBox="0 0 22 21" fill="none" xmlns="http://www.w3.org/2000/svg">
<path d="M5.50137 20.0781C5.75075 20.0781 5.9989 20.0016 6.21247 19.8491L11.234 16.2479L16.2556 19.8491C16.4636 19.9988 16.7137 20.0789 16.97 20.078C17.2263 20.0771 17.4757 19.9953 17.6827 19.8442C17.8899 19.6939 18.0445 19.4822 18.1244 19.239C18.2043 18.9959 18.2055 18.7337 18.1278 18.4899L16.255 12.4455L21.2315 8.93871C21.4377 8.7865 21.5909 8.5733 21.6693 8.32927C21.7477 8.08523 21.7475 7.82271 21.6685 7.57885C21.5889 7.33557 21.4349 7.12346 21.2282 6.97248C21.0215 6.82151 20.7726 6.73931 20.5167 6.7375L14.3531 6.72824L12.3908 0.833844C12.3098 0.591023 12.1545 0.379832 11.9468 0.23018C11.7392 0.0805281 11.4897 0 11.2337 0C10.9778 0 10.7283 0.0805281 10.5206 0.23018C10.3129 0.379832 10.1576 0.591023 10.0766 0.833844L8.14764 6.72824L1.95263 6.7375C1.69638 6.73894 1.44709 6.8211 1.24019 6.9723C1.03329 7.12351 0.879301 7.33606 0.800091 7.57977C0.720881 7.82348 0.720482 8.08596 0.798952 8.32991C0.87742 8.57386 1.03077 8.78688 1.23721 8.93871L6.21371 12.4455L4.34089 18.4899C4.26303 18.7337 4.26408 18.9958 4.34388 19.239C4.42367 19.4821 4.57816 19.6939 4.78533 19.8442C4.99297 19.9965 5.24385 20.0785 5.50137 20.0781Z" fill="#CEC9C1"/>
</svg>
