<?xml version="1.0" encoding="utf-8"?>
<!-- Generator: Adobe Illustrator 26.0.2, SVG Export Plug-In . SVG Version: 6.00 Build 0)  -->
<svg version="1.1" id="Layer_1" xmlns="http://www.w3.org/2000/svg" xmlns:xlink="http://www.w3.org/1999/xlink" x="0px" y="0px"
	 viewBox="0 0 82 82.01" style="enable-background:new 0 0 82 82.01;" xml:space="preserve">
<style type="text/css">
	.st0{fill:#849AFF;}
	.st1{fill:none;}
	.st2{fill:#6875FF;}
	.st3{fill:none;stroke:#6875FF;stroke-width:0;stroke-linecap:round;stroke-linejoin:round;}
</style>
<rect x="10.35" y="10.35" transform="matrix(0.8983 -0.4394 0.4394 0.8983 -13.8474 22.184)" class="st0" width="61.3" height="61.31"/>
<g>
	<path class="st1" d="M29.47,51.08l-0.11,0.02c-0.25-0.7-0.83-0.63-0.36,0.16C29.47,52.05,29.78,51.91,29.47,51.08z"/>
	<path class="st1" d="M30.14,45.17c-0.27,0.2,0.68,1.26,0.81,0.86h-0.07C30.89,45.46,30.41,44.97,30.14,45.17z"/>
	<path class="st1" d="M56.87,3.67C56.87,3.68,56.87,3.68,56.87,3.67L56.87,3.67z"/>
	<path class="st1" d="M26.93,82.01l0.04-0.02c-0.02-0.01-0.04-0.02-0.07-0.04L26.93,82.01z"/>
	<path class="st1" d="M34.31,10.76c0.11,0.25,0.11,0.23,0.11,0c-0.04-0.21-0.2-0.38-0.36-0.49l-0.5,0.24
		C33.67,10.87,34.21,10.53,34.31,10.76z"/>
	<path class="st1" d="M75.33,41.43l-0.21-0.44C75.06,41.15,75.18,41.34,75.33,41.43z"/>
	<path class="st1" d="M12.13,51.75l0.24,0.49C12.56,52.1,12.82,52,13.14,52C12.98,51.26,12.59,51.41,12.13,51.75z"/>
	<path class="st1" d="M45.61,27.29v-0.02c0.54-0.45-0.23-0.79-0.54-0.38S45.18,27.72,45.61,27.29z"/>
	<path class="st1" d="M34.29,46.57h-0.07c0.07-0.86-0.92,0.23-0.29,0.34c0.09,0,0.18-0.04,0.24-0.1
		C34.24,46.74,34.28,46.66,34.29,46.57z"/>
	<path class="st1" d="M16.75,61.18l0.13,0.27c0-0.01,0-0.01,0.01-0.02C17.11,60.92,16.98,60.97,16.75,61.18z"/>
	<path class="st1" d="M44.48,27.02c0.11-1.06-0.5,0.18-0.32,0.29S44.48,27.29,44.48,27.02z"/>
	<path class="st1" d="M33.95,47.45c-0.11,0.54,0.9,0.74,0.29,1.13c-0.61,0.38-0.11,0.79,0.32,0.25v0.02
		C34.99,48.62,34.06,46.91,33.95,47.45z"/>
	<path class="st1" d="M61.99,14.16l-0.1-0.21C61.87,14.1,61.86,14.18,61.99,14.16z"/>
	<path class="st1" d="M33.25,11.39v0.09c-0.23-0.33-0.4-0.49-0.52-0.56L32.58,11C32.8,11.28,34.14,12.42,33.25,11.39z"/>
	<path class="st1" d="M61.39,14.91c-0.25,0.41,0.8,0.36,1.09,0.26l-0.22-0.44C61.97,14.62,61.57,14.62,61.39,14.91z"/>
	<path class="st1" d="M61.91,51.75c-0.38-0.52-1.06,1.29-0.23,0.56h-0.07C61.89,52.07,61.98,51.84,61.91,51.75z"/>
	<path class="st1" d="M51.76,24.85c0.11-0.11,0.25-0.19,0.4-0.22c0.15-0.03,0.31-0.02,0.46,0.04c0.59,0.29-0.47-1.58-1.04-0.83
		c-0.63,0.54-0.97-0.54-0.97-0.23C50.61,23.93,51.18,25.55,51.76,24.85z"/>
	<path class="st1" d="M53.5,24.58c0.05-0.1,0.08-0.21,0.08-0.32s-0.03-0.22-0.08-0.32C53.2,23.59,53.25,25.24,53.5,24.58z"/>
	<path class="st1" d="M49.28,22.42c-0.43-0.54-0.68-0.56-0.7-0.45C48.56,22.08,50.27,23.55,49.28,22.42z"/>
	<path class="st1" d="M38.3,15.38c0.32,0,0.29-0.05,0-0.18c-0.05-0.01-0.09-0.04-0.13-0.07c-0.04-0.03-0.07-0.07-0.08-0.12
		s-0.03-0.09-0.03-0.14c0-0.05,0.01-0.1,0.04-0.14c0.18-0.54,1.78,1.2,0.83,0C37.96,13.2,36.95,15.36,38.3,15.38z"/>
	<path class="st1" d="M52.82,61.09c0.05-0.1,0.08-0.21,0.08-0.32s-0.03-0.22-0.08-0.32C52.55,60.1,52.57,61.74,52.82,61.09z"/>
	<path class="st1" d="M39.29,7.87c-0.14,0.18-0.4,0.2-0.61,0.14l-3.46,1.69c2.19,1.86,4.52,3.67,6.4,5.29
		c0.2-0.34,0.99,0.72,1.4,0.86c0.41,0.14,0.36,0.27,0,0.54c-1.01,0.68,1.51,0.34,1.24,0.86c-0.27,0.52,0.56,0.86,0.77,0.52
		c0.2-0.34,0.27-0.52,0.88,0.29c0.61,0.81,1.17,0.47,1.6,1.2c0.04,0.14,0.13,0.26,0.24,0.35s0.25,0.15,0.39,0.16
		c0.59-0.02,1.98,1.87,2.98,1.98s1.24,1.85,2.25,1.85c0.46,0.11,0.87,0.34,1.2,0.68c0.33,0.34,0.55,0.76,0.65,1.21
		c0.23,1.01,0.2,1.04,0.7,0.45c0.5-0.59,0.5-0.18,0.5,0.23s1.31,0.45,1.31,0.61c0,0.16,0.23,0.34,0.54,0.34
		c0.79-0.02-0.23,0.83,0.59,0.56c0.81-0.27,0,0.5,1.04,0.63s0.27,0.79,1.44,0.83c1.17,0.05-0.77,0.16-0.61,0.7
		c0.16,0.54,1.24-0.11,1.51,0.54c0.27,0.65-0.05,1.31-0.5,0.41s-0.56,0.86-1.24,0.65c-0.68-0.2-0.18-0.59-1.44-0.43
		s-1.51-0.54-0.99-0.74s0.11,0.52,0.86,0.52s-1.62-2.14-1.62-1.1c-0.27,0.38-0.38,0.79-0.81-0.25c-0.43-1.04-1.71-0.11-1.19-1.04
		c0.52-0.92-1.42-0.36-0.61-0.92c0.16-0.18,0.2-0.36,0-0.5c-0.7-0.2-1.4,1.17-1.92-0.2c-0.07-0.59-0.99-0.97-0.63-0.32
		s-1.01-0.07-2.1-1.29c-1.08-1.22-0.77,0.2-1.38-0.52c-0.61-0.72-1.22-0.32-1.53-1.1c-0.32-0.79,0.79,0.36,0.14-0.79
		c-0.83-0.7,1.17-2.3-0.18-1.67c-0.9,0.56,0.14,2.16-1.47,1.06c-1.06-0.41-0.5-1.08-1.24-0.83c-0.36,0.14-0.5,0.07-0.36-0.14
		c0.23-0.56-0.99-0.23-0.83-0.86c0.16-0.63-0.61-0.79-0.61-0.18c0,0.14-0.09,0.27-0.23,0.14c-0.32-0.56,2.1-1.83-0.16-0.83
		c-0.9,0.54-0.18-0.61-0.9-1.53c-0.7-2.19-1.31,1.01-2.05-1.06c0-0.41-0.09-0.45-0.43-0.14c-1.08,0.59-2.68-1.98-3.79-1.85
		c-0.23,0.11-0.45,0.25-0.23-0.36s-0.65-1.1-1.47-1.1s-0.97-0.5-0.81-1.44c0.05,0,0.2-0.2-0.27,0c-0.21,0.09-0.55-0.13-0.88-0.38
		l-3.19,1.56c0.2,0.28,0.27,0.61,0.1,0.87c-0.2,0.36-0.41,0.54,0.27,0c0.68-0.54,1.76-0.18,1.26,0.43c-0.5,0.61,0.11,1.08,0.74,0.41
		c0.63-0.68,1.96,1.22,1.6,1.58c-0.36,0.36-0.56,1.22,0.14,0.36c0.25-1.42,3.07,1.58,3.54,1.33c0.47-0.25,0.79,1.58,1.53,1.26
		c0.74-0.32,0.07,0.9-0.23,0.9c-1.35,0.88,2.41,0.29,0.63,2.25c-0.88,0.65,1.35,1.6,1.06,0.54c0-0.29-0.14-0.41-0.32-0.29
		c-0.88,0.52,0.83-3.63,1.83-1.51c0.61,0.79,0.88,0.07,1.38,0.79c0.5,0.72,1.04,0.16,2.01,1.01c0.97,0.86,0.83,0.9,0.29,1.4
		s-0.47,0.61,0,0.34c0.47-0.27,1.38,0.05,1.04-0.63c-0.14-0.2,0.09-0.07,0.5,0.34c0.77,0.92,0.95,1.26,0.32,0.92
		c-0.29-0.14-0.25-0.02,0,0.23c1.08,0.9,0.43,1.51,0,2.25c3.63-1.58-0.23-2.46,1.15-2.82c0.95-0.27,1.35,1.29,2.25,1.67
		c0.9,0.38,1.38,1.1,0.63,1.1c-0.16,0-0.34,0.25-0.34,0.5c0.07,0.59-1.17,0.74-0.86,0c1.15-2.93-0.25,0-0.81-0.43
		c0-0.2,0.16-0.38-0.32-0.41c-0.47-0.02,0.45,1.94,0.16,1.94c-1.51,0.23-2.12-1.76-3.18-1.74s-0.86-0.97-1.19-1.1
		c-0.29,0.32-1.53-0.38-1.31-0.77c-0.18-1.6-0.77,1.1-2.25-0.86c-0.5-0.47-1.06-0.74-1.22-0.63c-0.43-0.29-2.16-2.41-3.38-2.25
		c-0.7,0.09-1.62-0.59-0.83-1.42c0.79-0.83,0.63-1.31-0.2-0.52c-1.92,1.8-0.02-1.38-0.63-1.67c-0.43,0.07-0.23,1.38-0.63,1.51
		c-0.05,0.03-0.09,0.06-0.12,0.11c-0.03,0.04-0.05,0.09-0.07,0.15c-0.01,0.05-0.01,0.11-0.01,0.16c0.01,0.05,0.03,0.1,0.06,0.15
		c0.52,0.97-5.52-4.04-5.55-4.51c-0.02-0.47,0.9,0.38,0.52-0.25c-0.38-0.63-1.94,0.97-1.08-0.63c0.32-0.43,0.23-0.47-0.97-0.29
		c-0.41,0.07-0.8,0.07-1.14,0l-4.97,2.43c0.06,0.08,0.12,0.17,0.18,0.3c0.38,0.81,3.36,1.1,2.64,2.25c-0.27,0.43,0.74,0.09,0.9-0.18
		c0.16-0.27,0.27-0.23,0.27,0c0.16,0.65,1.2,0.32,1.2,1.31c0.14,0.56,0.32,0.97,0.43,0.56c0.11-0.41,1.83,0.45,1.56,0.63
		c-0.27,0.18,0.97,1.38,0.83,0.56c0.27-0.5,1.47,1.33,2.25,1.22c4.24,1.42-1.92,2.03,0.88,2.39c1.31-0.02,0.72,0.61-0.36,0.61
		c-0.59,0-0.88,0.11-0.88,0.25c0.05,0.56-0.65,0.18-0.56-0.41c0.09-0.59-0.68-0.99-0.5-0.34c0.09,0.14,0.25,0.38-0.32,0.14
		c-0.56-0.25-0.7-0.77-0.23-0.81c0.47-0.05,0.34-1.44-0.36-1.06c-1.24,0.25-2.28-1.47-0.52-1.04c1.4,0.38-0.68-0.97-0.99-0.16
		c-0.95,0.63,0.56,1.29,0.56,1.98c-0.02,0.25-0.43,0.34-0.77-0.38s-2.37-1.44-2.25-1.94c0.5-0.29-1.65-1.31-1.51-1.42
		c0.14-0.11-0.16-0.11-0.79-0.11c-1.1,0.41-1.98-0.88-2.77-1.58c-0.45,0.41-2.12,2.35-1.29,0.68c0.85-0.94-0.54-0.94-1.13-1.73
		l-1.64,0.8c-0.05,0.2-0.15,0.39-0.3,0.53c-0.72,0.63,0.88,0.16,0.74,0.77s-1.67-0.14-2.01,0c-0.43-0.02-0.04-0.3,0.09-0.57
		l-6.4,3.13c0.03,0.21,0.04,0.41,0,0.51c-0.14,0.34-0.2,0.43,0.32-0.14c0.52-0.56,0.54-0.56,0.77,0c0.34,1.22,0.99-1.42,1.35,1.04
		c0.29-0.29,2.37,0.83,2.55,1.38c0.18,0.54,1.04-0.14,0.77,0.36c-0.27,0.5-2.34-0.5-2.25,0c0.09,0.5-0.88,0.29-1.31,0.88
		c-0.99,0.81-0.11-0.7-0.83-0.25c-0.72,0.45-0.99-2.3-1.29-1.6c0,0.07-0.02,0.14-0.06,0.2c-0.03,0.06-0.08,0.11-0.14,0.16
		s-0.12,0.07-0.19,0.08c-0.07,0.01-0.14,0.01-0.21-0.01c-0.07-0.02-0.13-0.05-0.18-0.09c-0.05-0.04-0.1-0.1-0.13-0.16
		s-0.05-0.13-0.05-0.2c0-0.07,0.01-0.14,0.04-0.2c0.32-0.56-0.79-0.86-0.18-1.2C5.77,24.35,5.92,24.19,6,24l-3.7,1.81
		c0.32,0.66,0.5,1.36,0.02,1.46c-0.7,0.61-0.68-0.28-0.69-1.13L0,26.93l10.35,21.18c0.26,0.17,0.3,0.44,0.31,0.63l0.08,0.16
		c0.01,0,0.01,0,0.01-0.01c0.23-0.23,0.41-0.16,0.41,0c0.25,0.59,1.47,0.23,1.74,1.2c0.47,1.35,2.57-1.08,1.56,2.25l0.45-0.72
		c0.47-1.42,1.94,0.54,1.8,1.22c-0.14,0.68,0,0.9,0.36,1.15c0.36,0.25,1.13-0.14,0.5-0.14c-1.4-0.54,1.24-0.68,2.1,0
		c0.54,0.29,0.59,0.47,0.25,0.68c-0.7-0.2-0.47,3.11-1.04,2.46c-0.23-0.63-2.34-0.45-1.24-1.49c0.27-0.32,0.41-0.61,0.27-0.72
		c-0.77-0.09-0.77,2.14-1.74,0.9c-0.74-0.56-0.9-0.92-0.27-0.56c0.14,0.18,0.45,0.43,0.14-0.16c-0.32-0.59-1.08,0.09-1.38-0.41
		c-0.06-0.08-0.15-0.14-0.25-0.16s-0.2-0.02-0.29,0.03c-0.41,0.02,0.41-0.95-0.77-0.61c-0.09,0-0.14-0.02-0.22-0.03l2.62,5.36
		c0.07-0.02,0.1-0.08,0.1-0.16c0.17-0.91,0.29,0.06,0.05,0.47l0.51,1.05c0.98-0.57,0.88,0.22,1.38,0.28
		c0.98-0.67-0.25,0.68-0.77,0.96l7.32,14.97c0.13,0.03,0.21,0.08,0.1,0.17c-0.01,0-0.01,0-0.02,0l0.24,0.49
		c0.08-0.01,0.15-0.01,0.23-0.04c0.95-0.38,0.27,1.49,0.83,1.87c0.28,0.39,0.2,0.4,0,0.35l0.54,1.11c0.51,0.29,0.99,1.01,0.99,0.66
		c0.08-0.58,0.45-0.19,0.6,0.24l0.27-0.13c-0.17-0.15-0.15-0.45,0.39-0.45c0.14,0,0.25,0.04,0.36,0.08l0.4-0.2
		c-0.37-0.21-0.81-0.41-0.74-0.56c0.19-0.55,0.75-0.13,1.29,0.29l3.6-1.76c-0.03-0.08-0.06-0.17-0.06-0.26
		c0-0.13,0.03-0.26,0.09-0.37c0.36-0.28,0.56-0.01,0.61,0.32l0.69-0.34c-0.09-0.18-0.22-0.38-0.47-0.54
		c-0.43-0.43-0.74-0.63-0.61-0.43c0.32,0.88-0.95,0.23-0.23-0.34c0.97-0.79,0.95,0.29,2.03,0.41c0.47,0.05,0.5,0.17,0.45,0.33
		L66.82,62.5c-0.29-0.55-1.2-1.24-0.9,0.17c-0.54,0.54-1.51-0.88-0.54-1.17c0.25-0.2,0.25-0.18-0.2-0.2
		c-0.45-0.02-0.47,0.09-0.16-0.45c0.32-0.54,1.44,0,1.6-0.54c0.44-0.36,1.69,0.22,2.81,0.92l1.86-0.91
		c-0.17,0.01-0.55-0.18-0.95-0.46c-0.68-0.47-0.36-1.85-0.56-2.01c-0.2-0.16-0.34-0.07-0.2,0.41c0.59,0.92-1.53,0.56-1.67,0.27
		c-0.14-0.29-0.04-0.45-0.5-0.29s-0.16-0.88-0.74-0.88s-3.56-2.71-1.83-2.48c0.2,0.14,0.2-0.02,0.2-0.38
		c-0.07-0.88-0.95-0.54-0.95-0.88s-0.09-0.34-0.29,0c-0.23,0.83-2.32-0.34-2.66-0.14c-0.34,0.2-1.08-0.25-0.68-0.54
		s0.41-0.29,0-0.29c-0.88,0.07,1.08-1.33,0.29-1.51c-0.95-0.59-0.79,1.56-1.33,1.83c-0.54-0.14,0.07-1.2-1.06-1.2
		c-1.13,0-1.06-2.25,0.23-2.25c2.73-0.43-2.53-0.32-3,0c-0.47,0.32-0.92,0.65,0,0.32c0.92-0.34,0.52,0.9,0,0.52
		c-0.52-0.38-3.7-1.94-4.37-2.39c-0.16-1.17-0.29-1.58-0.29-1.87c-0.43-1.65,0.81-0.5,0.56-1.24c-0.06-0.12-0.09-0.24-0.09-0.37
		c0-0.13,0.03-0.26,0.09-0.37c0.14-0.83,2.46,1.22,2.43,1.13c-0.14-0.9,1.29-0.25,0.81,0.77c0.27,0.18,1.33-1.31,1.33,0
		c0,0.34,0.09,0.34,0.23,0.34c0.18-0.52,1.17,0.7,0.95,0c-0.23-0.7,1.33,1.08,1.33,1.33c0,0.97,2.19-0.2,1.74,0.81
		c-0.36,0.65,0.47,0.38,0.29,0.79c0.56,0.43,3.16,0.11,2.82,0.95c0,0.06,0.01,0.12,0.03,0.17c0.02,0.06,0.05,0.11,0.09,0.15
		c0.04,0.04,0.09,0.08,0.14,0.11c0.05,0.03,0.11,0.04,0.17,0.04c0.59,0.23-1.38,0.95-0.27,1.13c0.34,0.11,0.34,0.07,0.34-0.16
		c-0.41-0.61,1.78,0.07,2.03,0.5c0.25,0.43,0.43,0.7,0.74,0.43c0.32-0.27,1.19,1.24,1.44,0.95c0.25-0.29,1.29,1.62,1.53,1.35
		c1.17,0.39,2.26,1,3.2,1.8c0.59,0.83,0.45,0.18,1.24,0.83c0.33,0.27,0.81,0.53,1.27,0.81l5.72-2.8c-0.01-0.16,0.15-0.64-0.25-1.04
		c-0.56-0.56-1.01-0.7-0.7-0.16c0.32,0.54-1.67,0-1.94,0c-0.27,0-0.09-1.71,0.25-2.25c0.36-0.7,2.19-0.16,2.19,0.68
		c0,0.2-0.23,0.07-0.52-0.29c-0.72-0.88-0.18,0.34-0.47,0.7s-0.56,0.61,0.23,0.36c0.69-0.22,2.05,1.17,1.66,1.79L82,55.08
		l-3.15-6.45c-0.17-0.1-0.22-0.21-0.16-0.33L78.3,47.5c-0.28,0.17-0.42,0.11-0.26-0.53L77.8,46.5c-0.07,0.01-0.11-0.06-0.09-0.19
		l-0.66-1.34C77.03,45,77,45.03,76.97,45.06c-0.7,0.63-1.74,0.47-1.6-0.23c0.07-0.25-0.09-0.36-0.29-0.36
		c-0.61,0.11-0.59-0.59-0.99-0.59s-0.47-0.09-0.2-0.25c0.18-0.2,2.59-0.59,2.25,0.23c-0.13,0.27,0.04,0.4,0.51,0.27L75.7,42.2
		c-0.11,0.22-0.09,0.51-0.4,0.02c-0.29-0.43-0.43-0.36-0.99,0.34c-0.81,1.53-1.74-0.5-1.01-0.83c0.2-0.09,0.34,0.05,0.34,0.34
		c0.09,0.81,0.77,0.2,0.54-0.41s0.41,0.05,0.61-0.61c0.03-0.15,0.12-0.25,0.21-0.31l-8.22-16.81c-0.55-0.05-1.22-0.21-1.14-0.29
		c0-0.13,0.46-0.2,0.91-0.17l-2.05-4.2c-0.61-0.4-0.83-0.97-0.65-1.34l-0.15-0.32c-0.7,0.57-0.79,0.6-0.87-0.11
		c-0.09-0.83-0.77-0.18-0.88-0.52c0.34-1.56-0.99-1.89-0.5-0.34c0.5,1.56-1.69-1.42-0.36-1.78c1.08-1.17-0.83-0.99-0.83,0.2
		c-0.43,1.17-0.65-0.36-1.67,0c-1.01,0.36-0.45-0.72-1.01-0.9c-0.56-0.18,0.7-1.26,1.01-1.17c0.32,0.09,0.79,0.02,0.79-0.14
		c0.97-0.79,1.04,0.88,1.87,0.52c0.14-0.05,0.25-0.07,0.34-0.08l-4.24-8.66c-0.46,0.15-0.03-1.39-1.11-0.44
		c-0.29,0.34-0.29,0.54-0.29,0s-1.01,0.18-0.2-0.54c0.38-0.3,0.64-0.55,0.81-0.64L55.07,0l-0.85,0.42c0.46,0.41,1.01,1.09,0.68,0.78
		c-0.61-0.56-0.79,0.16-1.06-0.56c0-0.01-0.01-0.02-0.01-0.03l-1.07,0.52c-0.12,0.47-0.32,0.85-0.59,0.79
		c-0.47,0.11-0.72,0.32-0.25-0.29c0.04-0.05,0.06-0.09,0.09-0.13L39.39,7.67C39.37,7.73,39.35,7.8,39.29,7.87z M37.9,20.5
		c-0.27,0-0.27-0.2,0-0.5C38.78,18.95,38.64,20.5,37.9,20.5z M40.11,18.43c0.23-0.36,0.83-0.23,1.04,0.32
		C41.35,19.28,39.79,18.81,40.11,18.43z M25.86,15.5c0.02,0.43-0.65,0.43-0.65,0c-0.01-0.05-0.01-0.1,0-0.15
		c0.01-0.05,0.03-0.1,0.06-0.14c0.03-0.04,0.07-0.07,0.12-0.1c0.05-0.02,0.1-0.03,0.15-0.03c0.05,0,0.1,0.01,0.15,0.03
		s0.09,0.06,0.12,0.1c0.03,0.04,0.05,0.09,0.06,0.14S25.87,15.45,25.86,15.5z M4.48,28.17c0.09-0.52,0.74-0.14,0.68,0.38
		C5.09,29.07,4.48,28.42,4.48,28.17z M10.84,27.83c0-0.45,0.2-0.38,0.65,0.2C12.33,28.87,10.84,28.15,10.84,27.83z M59.61,36.04
		c-0.09,1.22-0.36,1.6-0.56-0.36C58.91,33.81,59.7,34.82,59.61,36.04z M48.79,40.14c0.25-0.34,0.36-0.41,0.61,0
		S48.54,40.55,48.79,40.14z M46.91,36.67c0.05,0.25-0.68,0.68-0.68,0.25C46.19,36.53,46.87,36.42,46.91,36.67z M45.04,37.28
		c-0.14-0.47-1.13-0.27-1.13-0.7C44.14,35.52,45.7,37.46,45.04,37.28z M42.9,35.88c0.14,0.61-1.08,0.83-0.83,0.34
		c0.25-0.5-0.5-0.25-0.5-0.68C41.68,35,42.77,35.27,42.9,35.88z M40.74,32.86c0.18-0.34,0.45-0.36,0.5,0
		C41.28,33.22,40.49,33.35,40.74,32.86z M39.66,32.3c0.06-0.06,0.15-0.1,0.24-0.1c0.09,0,0.18,0.04,0.24,0.1
		c0.06,0.06,0.1,0.15,0.1,0.24c0,0.41-0.68,0.43-0.68,0C39.57,32.45,39.6,32.37,39.66,32.3z M38.69,32.41
		c0.25,0.7-0.45,0.07-0.45-0.25C38.24,31.78,38.44,31.71,38.69,32.41z M37.33,29.52c1.1-0.65,1.08,1.47,0.43,1.76
		c-0.14,0-0.25-0.11-0.14-0.32s-0.02-0.34-0.29-0.34C36.79,30.63,36.72,29.75,37.33,29.52z M35.6,30.02c0.16-1.53,1.01,1.56,0,1.51
		C35.06,31.35,35.87,30.58,35.6,30.02z M34.9,30.87c-0.02,0.5-0.32,0.32-0.52,0C34.15,30.36,34.92,30.38,34.9,30.87z M33.79,28.75
		c0.29,0.14,0.45,0.11,0.29-0.16c-0.14-0.25-0.09-0.41,0.02-0.41c0.9-0.11,0.77,2.07-0.32,1.31C33.1,29.09,33.03,28.46,33.79,28.75z
		 M32.89,25.85c-0.02,0.45-1.01-0.07-1.01-0.2C31.94,25.46,32.91,25.39,32.89,25.85z M32,32.01c-0.07-0.06-0.11-0.15-0.12-0.24
		c-0.05-0.77,0.92,0.32,0.36,0.34C32.15,32.11,32.06,32.07,32,32.01z M32.06,41.86c-0.2,0.16-0.83-0.34-0.83-0.68
		C31.27,40.8,32.26,41.7,32.06,41.86z M32.31,28.03c0-0.77,0.23-0.7,0.47,0S32.31,28.62,32.31,28.03z M31.29,27.69
		c0.23-0.43,0.86,1.08,0,1.17S31.74,28.01,31.29,27.69z M29.78,41.38c-0.14,0.59-1.78,0.7-1.01-0.36c0.14-0.36,0.27-0.43,0.38-0.2
		C29.28,41.38,29.92,40.8,29.78,41.38z M29.49,40.05c-0.11,0.09-0.41-0.07-0.41-0.41C28.59,38.65,29.6,39.96,29.49,40.05z
		 M27.91,28.26c0.02-0.77,0.34,0.41,0.9,0C29.92,27.83,27.62,30.04,27.91,28.26z M27.55,38.61c1.08-0.25,1.26,1.01,0.16,0.68
		c-0.5-0.11-0.63-0.05-0.5,0.16c0.09,1.56-3.83-0.38-2.84-1.13c0.05-0.02,0.09-0.05,0.13-0.09c0.04-0.04,0.06-0.09,0.08-0.14
		c0.02-0.05,0.02-0.11,0.02-0.16c-0.01-0.05-0.02-0.11-0.05-0.15c-0.11-0.23,0.09-0.14,0.45,0.2c0.79,0.77,1.35,0.16,0.54-0.41
		c-1.04-0.77,1.56-0.2,1.08,0.63C26.62,38.61,26.87,38.61,27.55,38.61z M24.73,26.03c-0.25-0.72,0.74,0.07,0.74,0.23
		s0.11,0.63,0.45,0.16c0.34-0.47,1.58,1.33,0.83,1.78c-0.68-0.29,0.25-2.01-1.15-0.83c-0.47,0.34-0.83,0.74-1.08,0.34
		s1.38-0.83,0-0.83c-0.47,0-0.93-0.14-1.33-0.38C22.25,25.89,25.38,26.79,24.73,26.03z M23.29,37.01c0.41-0.34,0.41-0.5,0-0.72
		c-0.43-0.27-0.18-0.34,0.7-0.25c2.59-0.07,0.23,2.14-0.86,1.51c-0.47-0.41-1.29,0.29-1.04-0.41C22.95,35.63,22.66,37.8,23.29,37.01
		z M22.07,23.34c0.18-0.59,1.1-0.72,0.45,0c-0.65,0.72,0.34,0.29,0.34,1.01C22.66,25.6,21.69,24.15,22.07,23.34z M21.53,34.53
		c-0.7-0.43-1.33-0.68-0.9-0.18c0.43,0.5-1.04,1.62,0.43,1.47c2.41,0.36-2.46,0.52-1.87-0.77c0.05-0.68,0.05-0.68,0.54,0
		c0.86,1.42,0.41-0.9,0-0.83c-0.41,0.07-0.88-0.74-0.63-1.1v-0.07c0.41-0.29,0.79,1.51,1.47,0.54
		C21.24,32.61,23.65,35.65,21.53,34.53z M20.36,24.52c-0.09-0.16,0.02-0.34,0.29-0.34C21.78,24.09,20.76,25.15,20.36,24.52z
		 M18.78,23.18c0.5,0.72,0.47-0.2,0-1.1c-0.97-1.58,0.83,0.63,1.01,0.27s2.05,2.25,0.92,1.26c-1.13-0.99-1.89,0.99-2.25-0.54
		C18.46,22.85,18.58,22.87,18.78,23.18z M18.19,31.78c0.05-0.47,1.89,0.83,0.23,0.65c-1.67-0.18,0.41,2.23-0.54,2.07
		c-0.36,0.07-1.04-2.68,0-2.48C18.06,32.11,18.19,32.02,18.19,31.78z M18.08,22.94c-0.05,0.63-0.9,0.54-0.9-0.18
		C17.15,21.94,18.12,22.31,18.08,22.94z M16.84,20.16c0,0.52-0.29,0.34-0.5,0C16.1,19.67,16.84,19.64,16.84,20.16z M15.08,21.88
		c0.18-0.86,1.15-0.45,0.74,0.34C15.42,23,14.86,22.73,15.08,21.88z M13.64,31.42c-0.29,0.11-0.5,0.36-0.29-0.14
		c0.2-0.5-0.56-0.09-0.5-0.86c0.07-0.77,1.67-0.05,1.67-1.17c0-0.47-1.62,0.36-1.92,0.83c-0.29,0.47-0.45,0.47-0.29,0
		c0.13-0.52,0.19-1.06,0.2-1.6c-0.14-1.06,0.86-1.22,0.95-0.38c0,0.36,0.2,0.5,0.68,0.36c1.04-0.18,0.54,0.81,1.62,1.15
		c1.08,0.34,0.56,0.97,0.95,1.31c0.16,0,0.34,0.23,0.34,0.5c-0.5,1.56-0.86-1.83-2.25,0C13.91,32.38,14.47,31.08,13.64,31.42z
		 M16.84,33.26c0,0.9-1.15,0.25-1.15-0.7C15.53,30.99,16.84,32.36,16.84,33.26z M21.03,55.54c1.65-0.86,1.06,1.04,2.03,1.38
		c0.34,0,0.27,0.2-0.27,0.74c-1.51,1.89-2.3-2.12-2.71-0.88c-0.2,0.45-0.2,0.34-0.2-0.29C19.86,55.18,20.18,56.02,21.03,55.54z
		 M25.61,58.02c1.17,0.11-0.02,1.17-0.52,1.01c-0.5-0.16-0.04,0.63,0.52,0.36c0.56-0.27-0.05,0.81-0.27,0.7
		c-1.24,0.81-1.74-0.25-2.62-0.88c-3.02,0.18,0.74-1.1,1.01-1.8c0.09-0.47,1.38,0.05,1.29,0.18C24.93,57.73,25.2,58.02,25.61,58.02z
		 M27.16,60.59c0.63,0,0.52,0.32-0.34,0.77s-2.21-0.5-1.67-0.92c0.1,0.04,0.21,0.05,0.3,0.01s0.18-0.1,0.24-0.19
		c0.07-0.27,1.51-0.56,1.33,0C26.94,60.44,27.01,60.59,27.16,60.59z M22.02,64.61c-0.38,0.61-0.36,0.56-0.38,0
		c-0.02-0.56-0.09-0.68-0.36-0.16c-0.27,0.52-0.36,0.52-0.9,0c-1.29-1.1,2.01-0.11,0-1.51c-0.97-0.79-0.83,0.56-1.42,0.41
		s0.56-1.15,0-1.15c-0.56,0-0.54-0.9,0-1.1h0.09c0.27-0.12,0.58-0.14,0.85-0.03c0.28,0.1,0.51,0.31,0.63,0.58
		c0.61,0.81,0.86-0.18,1.51,0.95s1.31-0.81,1.58,0.83C23.49,64.11,22.41,64,22.02,64.61z M24.44,65.6
		c-0.07-0.45,2.21,0.09,2.03,0.45s1.92,3.36,0,1.35C26.04,66.55,24.14,66.57,24.44,65.6z M26.58,80.5c-0.59-0.61,1.1-0.7,1.42-0.23
		C28.32,80.75,26.94,80.96,26.58,80.5z M27.91,68.96c-0.09,0-0.18-0.03-0.25-0.1s-0.11-0.15-0.11-0.24
		C27.48,67.85,28.47,68.85,27.91,68.96z M30.82,62.8c-0.5-0.38-1.53,0.38-1.53,0.2c0-0.18-0.25-0.29-0.52-0.18
		c-0.9,0.29-0.05-0.83-0.9-0.63c-1.53-0.11,0.07-0.43,0-1.47c-0.07-1.04,0.54-0.29,0.68-0.79c0-0.2,0.16-0.27,0.41-0.14
		c0.72,0.38-1.01,0.74,0,1.1c0.21,0.15,0.47,0.2,0.72,0.16c0.38-0.07,0.32,0.65,0.95,1.2C31.25,62.8,31.31,63.19,30.82,62.8z
		 M32.55,62.26c0-0.43,1.06,0,0.99,0.2S32.55,62.67,32.55,62.26z M36.25,66.48c-0.02-0.36-0.07-0.54,0.18-0.43
		C36.68,66.16,36.25,67.4,36.25,66.48z M54.6,66.88c-0.74,0.41-2.23-0.38-2.14-0.38s-0.11-0.11-0.41,0c-1.06,0.61,0.2-1.4-0.5-0.65
		s-4.33-1.38-1.65-1.15c1.01,0.2,1.01,0.14,1.01-0.59c0.05-2.3,2.01,0.88,2.37,1.24s0.63,0.45,0.63,0.23
		C54.24,64.88,56.16,66.43,54.6,66.88z M58.12,65.89c0.32,0.68-0.81-0.18-0.81-0.45c0-0.27,0.18-0.5-0.29-0.47
		c-0.47,0.02-0.81-1.31-1.26-1.17c-0.45,0.14-0.47,0.09-0.14-0.29c0.92-1.1-1.31,0.38-1.74-0.41c0.11-0.47-3.25-1.47-3.25-1.67
		s-0.36-0.61-0.83-0.61c-1.19-0.36-0.81-1.76-2.41-1.58c-1.04,0.23-2.46-1.33-1.04-1.08c0.14,0.16,0.18,0.05,0-0.18
		c-0.18-0.23-0.04-0.56-0.61,0c-0.56,0.56-1.1,0.36-0.74-0.29c0.36-0.65-0.5-0.95-0.32-0.34c0.2,0.16,0.5,0.34,0,0.34
		c-0.5,0-0.63-1.13-0.5-1.44c0.14-0.32,0.29-0.45-0.29,0s-1.8,0.41-1.58-0.41s-1.06-2.05-0.83-0.81c0.18,0.54-1.38-0.59-1.2-0.72
		c0-0.5-1.01-0.2-1.01-0.68c-0.34-0.41-1.15,0.2-1.69-0.7c-0.92-1.08-1.26-0.61-2.41-1.44c-1.67-0.56,0.83-2.37-0.9-1.38
		c-0.63,0.92-1.85,0.02-1.33-0.7c0.29-0.32,0.16-0.32-0.47-0.32c-1.14-0.14-2.23-0.54-3.2-1.15c0-0.2,0.02-0.36-0.47-0.34
		c-0.5,0.02-1.17-1.04-1.51-1.49c-0.02,0.7-0.09,1.67,0.63,2.1c0.72,0.43,0.97,1.13,0.27,0.88s0.43,0.43,0.83,0.43
		c3.43,0.54,4.78,2.8,7.26,3.74c-0.02,0.5,0.97,0.27,0.99,0.7c0.02,0.43-1.04,0.18-0.99,0.68c0.05,0.5,0.99,0.86,0.99,1.26
		s0.11,0.43,0.41,0.14c0.63-0.63,1.4,0.16,0.88,0.9c-0.25,0.29-0.05,0.2,0.38-0.2l0.83-0.74c0.47,0.43,1.69,1.69,1.6,1.98
		c-0.09,0.29,0.09,0.14,0.38-0.14c0.29-0.27,0.52-0.47,0.52-0.27c0.11,0.61,0.65,0.07,1.17,1.04c0.52,0.97,1.17,0.2,2.25,1.17
		c0.87,0.65,1.81,1.19,2.82,1.6c-1.47,1.1-2.12,1.71,0,0.59c1.1-0.14-1.19,1.58,0.32,0.88s0.25,1.94,0,0.74
		c0.41-0.77-1.58,0.79-2.25,0.25c-1.33-0.07-0.27-1.4-0.95-1.53c-0.68-0.14,1.13-0.65,0-0.65c-0.34,0-0.65,0.36-0.79,0.9
		c-0.2,1.8-1.24-0.47-0.97-1.04c0.43-1.35-0.77,0.63-0.97,0.9c-0.16-0.52-0.72-1.44-1.1-1.44s-0.52-0.18-0.38-0.47
		c0.14-0.29,0.34-0.56-0.45-0.29c-0.79,0.27-0.45-0.56-1.08-0.36c-0.07,0.16-0.68-0.24-1.04-0.5c-0.02-0.01-0.04-0.03-0.05-0.04
		c-0.15-0.11-0.24-0.19-0.17-0.14c0.07,0.05,0.13,0.1,0.17,0.14c0.02,0.01,0.03,0.03,0.05,0.04c0.07,0.05,0.09,0,0-0.31
		c-0.16-0.54-1.33-0.18-0.99-0.83c0.2-0.34,0.16-0.34-0.27,0c-0.47,0.7-1.47-0.45-0.86-0.72s-0.83-0.14-0.74-0.56
		c0.09-0.43-0.63-0.07-0.83-0.65c-0.2-0.59-1.8,0.18-2.25-0.88c-1.1-1.15-1.4-0.52-2.25-2.14c-0.5-0.56-0.68-0.63-0.68-0.23
		c0.18,0.88-1.51-0.32-1.4-0.7c0.11-0.38-0.07-0.38-0.47-0.38c-0.95,0.14-2.25-0.27-2.25-0.72s-2.03-1.24-2.25-1.67
		c-0.23-0.43-0.65-0.02-0.7-0.88c-0.05-0.86-0.05-0.86-0.25-0.16c-0.16,1.35-1.92-0.16-1.17-1.04c0.36-0.7,0.54-0.68,0-0.7
		c-0.54-0.02-1.31,2.53-1.17,0.79c-0.02-0.59,0.11-0.97-0.41-0.43c-0.52,0.54-1.22-0.07-0.97-0.41c0.25-0.34,0.07-0.34-0.65-0.34
		c-1.17,0.18-0.99-0.83-1.98-0.83c-0.17,0-0.34-0.05-0.49-0.14c-0.15-0.09-0.27-0.22-0.34-0.38c-0.25-0.7-0.59,0.14-0.77-0.9
		c-0.18-1.04-1.35-1.29-0.41-2.48c1.31-1.17,2.64,1.15,3.79,0.83c0.56-0.38,0.05,0.81,0.25,0.72c0.2-0.09,0.34-0.02,0.34,0.14
		c0.2,0.77,0.81,0.2,0.63-0.36c1.96,0,1.92,1.2,4.51,2.25c1.04,0.45,1.99,1.08,2.82,1.85c0.5-0.09-0.27-1.4,0.5-1.35
		c0.77,0.05,0-0.47,0.5-0.65c0.5-0.18-0.09-0.9,0.63-1.22c1.15-1.22-0.02,2.37,0.7,1.04c1.19-1.96,3.88,1.15,5.55,1.15
		c0.23,0.5,1.38,0.23,1.51,0.92c0.14,0.7,0.74,0.34,2.07,1.17c1.33,0.83,1.6,1.1,1.47,1.74c-0.14,0.63-0.09,0.63,0.27,0.14
		c0.36-0.5,0.41-0.74,0.99,0.23s1.1,0.2,1.42,0.97c0.32,0.77,1.4,0.41,1.94,1.04c0.54,0.63,0.88,0.36,1.42,0.88
		c0.95,1.31-2.32,2.62,0.95,2.25c2.05-0.52,2.8,1.35,3.97,1.35c0.16-0.2,0.16-0.09,0.16,0.2c-0.02,0.88,0.86,0.25,0.79,0.88
		c-0.07,0.63,0.47,0.14,0.92,0.43c0.45,0.29,0.34,0.25,0,0.29c-0.34,0.05-3.97,1.87-1.85,1.87c0.34,0.18,0.5,0.07,0.34-0.34
		c-0.41-0.88,0.81,0.07,1.04-0.59c0.23-0.65,2.91-0.68,1.83,0.56c-0.36,0.43-0.34,0.47,0.14,0.29c0.15-0.05,0.29-0.15,0.38-0.28
		s0.15-0.28,0.16-0.45c-0.16-0.97,1.4,0.77,1.17,0.92c-0.86,0.27,3.52,1.06,2.07,1.33c-1.56-0.16,0.7,1.78,0.86,0.9
		c0.2-0.23,0.2-0.11,0.2,0.18c0.11,0.68-0.97,0.79-0.97,0.23c0-0.14-0.14-0.14-0.34-0.14c-0.72,0.11,0.18,2.21,0.68,1.17
		c0.34-0.29,0.47-0.61,0.34,0c-0.14,0.61,0.79,0.11,0.59,0.25c-0.2,0.14-0.16,0.52,0,0.83C59.74,66.34,57.81,65.22,58.12,65.89z
		 M58.93,63.34c0-0.56,0.54-0.47,1.01,0.2C60.94,64.49,58.93,63.84,58.93,63.34z M60.6,64.95c-0.25,0.25-1.89,0.52-0.83,0
		C60.67,64.54,61.21,64.54,60.6,64.95z M63.69,55.25c-0.13-0.03-0.25-0.1-0.35-0.19c-0.1-0.1-0.16-0.22-0.19-0.35
		C62.88,53.54,64.52,55.23,63.69,55.25z M62.61,54.1c0.05,0.23-0.65,0.68-0.65,0.23C61.91,53.9,62.56,53.87,62.61,54.1z
		 M56.83,49.82c0.61-0.88,0.29,1.1,0,1.1C56.54,50.92,56.5,50.11,56.83,49.82z M51.02,48.85c0.73,0.28,1.39,0.71,1.94,1.26
		c0.29,0.34,1.22,0.14,1.53,0.92c0.59,1.24,1.13,1.65,0.9,0.74c-0.61-1.58,1.49,0.92,2.03,1.1c1.56,0.65-0.36,1.47,0.47,2.25
		c0.27,0.43,0.41,0.41,0.27,0c-0.77-1.42,2.07-1.53,1.13-0.65c-0.54,0.36,0,0.47,0.77,0.36c0.77-0.11,0.36,0.59,1.08,0.63
		c0.72,0.05,0.32,1.01,1.19,0.99c0.88-0.02-0.11,0.61,0.88,0.68s2.07,1.67,2.8,2.1c-0.23-0.07-1.56,1.2-1.71,1.08
		c-0.16-0.11-0.34-0.02-0.52,0.34c-0.18,0.36-0.34,0.43-0.63,0.16c-0.83-0.52-1.08-0.09-2.25-0.83c-1.89-0.54-0.36-2.3-1.33-1.58
		c-0.45,0.47-0.68,0.47-1.38,0c-1.08-0.34-0.38-2.16-0.83-1.17c-0.45,0.99-1.13-0.81-1.47-0.43c-0.34,0.38-0.23-1.94-0.47-1.17
		c-0.45,1.74-1.42-0.99-2.71-1.17c-1.29-0.18-2.46-1.89-3.25-2.03c-0.63,0.34-0.61-0.72-0.9-0.45c-0.29,0.27-2.39-1.33-2.55-1.15
		c-0.16,0.18-1.04-0.34-1.08-0.81c-0.05-0.47-1.17-0.36-1.49-0.47c-0.32-0.11-0.88,0.18-0.63-0.43c0.25-0.18-0.68-1.78-0.83-1.4
		c0.34,2.07-0.86,0.16-1.53,0.16c-1.15,0-3.29-1.89-4.31-2.25c-1.4,0.11-2.14-1.13-2.62-1.87c-0.74-0.27,0.32-0.77,0.18-0.92
		s0.07-0.29,0.52-0.16c1.22,0.29-0.2-0.72,0.34-1.62c0.2-0.25,3.4-0.14,3.38,1.22c0.32,1.56,0.32-0.09,0.32-0.54
		c0.59,0.32,2.66,1.4,2.66,1.78c0.68,0.38,3.74,1.29,3.47,2.03c-0.14,0.16-0.14,0.29,0,0.16c0.52-0.43,2.25,0.81,2.25,1.17
		s0.16,0.56,0.16,0.36c0.77-0.5,2.66-0.18,1.24,1.01c-0.61,0.68-0.54,0.65,0.23,0.16C49.03,47.9,49.21,47.9,51.02,48.85z
		 M57.51,35.99c-0.54,1.35-1.42-1.44-0.95-1.33c0.47,0.11-0.27-1.15-0.41-1.04c-0.14,0.11-0.29,0-0.14,0
		c1.19-0.25-1.67-2.05-1.67-1.33c0.52,0.56-3.58,0.5-3.16,0c0.02-0.25-0.11-0.41-0.27-0.41c-0.89-0.41-1.6-1.12-2.01-2.01
		c0.09-0.65,0.83-0.34,0.83,0.36s0.54,0.7,0.86,1.04s0.07,0.61,0.32-0.16s-1.98-1.8-1.01-2.25c1.92-1.26,1.65,0.86,1.98,0.32
		s1.04-0.2,1.04,0.47c0,0.29,0.2,0.29,0.5,0.29c0.07-0.03,0.14-0.04,0.21-0.04c0.07,0,0.15,0.02,0.21,0.05
		c0.07,0.03,0.12,0.08,0.17,0.13s0.08,0.12,0.1,0.19c0.5,0.86,0.92,0.47,1.83,1.6c1.35,1.53,0.54-0.14,1.98,0.99
		c0.97,0.72,1.06,1.6,0.41,1.67S58.01,35.47,57.51,35.99z M57.8,36.11c0.09-0.29,0.29-0.56,0.43-0.56
		C59.83,35.65,57.31,38.36,57.8,36.11z M58.3,37.68c0.18-0.36,1.06,0,1.33,0.43C60.74,39.17,58.3,37.68,58.3,37.68z M60.28,38.25
		c-0.05-0.38,0.61-0.45,0.65-0.23S60.28,38.68,60.28,38.25z M61.37,36.53c-0.36,1.01-0.86,0.47-0.36-0.25
		C61.61,35.41,61.73,35.52,61.37,36.53z M61.95,39.62c-0.2-0.9,1.51-1.08,0.63-0.18C62.11,39.98,61.95,40.71,61.95,39.62z
		 M65.4,41.83c-0.25,0.23-1.53-0.32-1.53-0.61C63.87,40.8,65.65,41.61,65.4,41.83z M65.31,40.71c-0.61,0.11-1.06-0.9-1.89-0.61
		c-1.71,0.07,0-0.65-0.36-1.56c-0.34-1.17,0.72-0.63,0.65,0.27c-0.07,0.9,0.7,1.06,1.47,0.56c0.77-0.5,0.77-0.29,0.77,0
		c0,0.29,0.02,0.65,0.27,0.54s0.68,3.34-0.14,1.83C65.58,41.34,65.92,40.59,65.31,40.71z M69.12,47.11
		c-0.7,0.43-0.41,1.49-1.42,0.83c-0.41-0.25-0.36-0.36,0-0.25s0.5,0.05,0.36-0.34c-0.41-1.42-1.71,0.65-2.12,0.65
		c0.01-0.12,0.04-0.24,0.1-0.34c0.06-0.11,0.14-0.2,0.24-0.27c0.56-0.38-0.16-0.77,0.56-1.13c1.26-0.86,0.81,0.11,1.44,0.16
		c0.16-0.14,0.47-0.16,0.83,0C69.48,46.59,69.48,46.7,69.12,47.11z M66.96,40.8c-0.02-0.74,1.04-0.2,0.99,0.18
		C67.91,41.36,66.96,41.29,66.96,40.8z M71.38,49.97c-0.59,0.59-0.43-0.34-0.18-0.5C71.62,49.09,71.96,49.39,71.38,49.97z
		 M76.97,52.59c0.02,0.41-0.65,0.43-0.65,0c-0.01-0.05-0.01-0.1,0-0.15c0.01-0.05,0.03-0.1,0.06-0.14c0.03-0.04,0.07-0.07,0.12-0.1
		c0.05-0.02,0.1-0.03,0.15-0.03c0.05,0,0.1,0.01,0.15,0.03s0.09,0.06,0.12,0.1c0.03,0.04,0.05,0.09,0.06,0.14
		C76.98,52.49,76.98,52.54,76.97,52.59z M77.65,50.38c0.02,0.16-1.33,0.59-1.33,0.16C76.25,50.18,77.62,50.22,77.65,50.38z
		 M76.34,46.03c0.32-0.36,0.52-0.41,0.56-0.14C77.15,46.97,75.37,47.24,76.34,46.03z M74.98,45.67c0.97-0.18,0.16,2.23-0.32,0.63
		C74.44,45.82,74.47,45.69,74.98,45.67z M73.97,49.16c-0.02-0.79,0.54,0.65,0.81,0.47c1.71,0,0.02,0.81-0.14,1.65
		c-0.16,0.83-1.47-1.38-0.38-0.83c1.65-0.18,0.88-1.1-0.99,0c-0.99,0.5-1.87,0.36-0.99-0.18c0.21-0.13,0.37-0.33,0.45-0.56
		C72.82,49.3,73.97,49.77,73.97,49.16z M72.89,39.71c0.36-0.83,0.56-0.27,0.16,0.41C72.64,40.8,72.57,40.59,72.89,39.71z
		 M72.44,44.02c0.99-1.65,1.26,1.51,0.83,1.87C72.84,45.89,72.23,44.56,72.44,44.02z M71.49,39.1c0.11-0.32,0.11-0.56,0.41-0.38
		C72.19,38.9,70.99,40.12,71.49,39.1z M71.67,41.22c0.97,1.15-0.7-0.43-0.7-0.43C70.97,40.41,71.24,40.59,71.67,41.22z M70.63,40.07
		c-0.07,0.77-0.68,0.05-0.68-0.38C70.07,38.92,70.63,39.65,70.63,40.07z M70.23,38.38c-0.09,0.09-0.29-0.07-0.41-0.41
		C69.33,36.98,70.32,38.29,70.23,38.38z M69.89,42.37c0.07,0.54,2.53,0.29,2.5,0.99c-0.02,0.7-2.28-0.16-1.69,0.47
		s1.98,0.41,1.44,2.01c-0.43,0.47-1.24-1.2-1.58-1.17c-0.34,0.02-0.52-0.11-0.34-0.68s0.18-0.56-0.41,0
		c-0.72,1.06-1.26-0.43-1.96-0.25c-0.29,0.14,0.07-1.08,0.34-0.97c0.27,0.11,0.43-0.05,0.43-0.43c-0.25-1.56,0.97,1.15,0.99,0.02
		C69.62,42.1,69.82,41.83,69.89,42.37z M68.15,36.71c1.29-1.29,1.69-0.02,1.15,0.9s0.18,0.38,0.32,1.17c0.14,0.79-1.17-0.14-1.47,0
		c-0.29,0.14-0.38-1.24-0.59-1.24S67.63,37.19,68.15,36.71z M66.33,25.19c-0.09,0-0.19-0.03-0.26-0.1
		c-0.07-0.06-0.12-0.15-0.13-0.24C65.9,23.97,66.87,25.01,66.33,25.19z M65.29,32.79c0,0.14-0.25,0.25-0.5,0.14
		c-1.01-0.41-0.27,2.19,0.23,0.83c0.36-0.27,2.62,1.67,2.62,1.67c-0.61,0.79-1.13-0.72-1.71-0.43c-0.59,0.29,0.9,1.2,1.2,1.44
		c-0.74-0.07-2.5-0.47-2.71-0.77c-0.2-0.29-0.27-0.54-0.56-0.29c-0.29,0.25-1.15-0.79-1.04-0.95c0.11-0.16-0.02-0.29-0.29-0.29
		c-0.7,0-2.32-1.2-2.05-1.71c0.27-0.52,1.15,0.92,1.15,0c0-0.14,0.04-0.28,0.11-0.39c0.08-0.12,0.19-0.21,0.31-0.26v-0.07
		c1.56-0.77,1.53,0.56,2.62,0.77C65,32.47,65.29,32.66,65.29,32.79z M64.3,23.75c-0.56-0.88-1.29,0.11-1.01,0.63
		c-0.18,0.11-1.17-0.63,0-1.2C65.61,21.02,65.47,24.88,64.3,23.75z M61.28,20.16c0,0.43-0.99,0.43-0.99,0
		C60.26,19.73,61.28,19.73,61.28,20.16z M60.65,21.16c0.79,0.23,1.31-1.1,1.26-0.25c-0.05,0.86,0.74,0.14,0.56,0.54
		s-1.01-0.56-0.59,0.41c0.43,0.97,1.51-0.95,1.4-0.43s-1.49,1.76-2.01,0.9c-0.88-0.63-2.41-1.01-2.41-2.25
		C59.86,18.36,59.36,21.61,60.65,21.16z M56.47,19.37c0.27-0.68,0.45-0.68,1.42,0.16C59.95,21.07,55.64,21.07,56.47,19.37z
		 M53.43,1.79c0.06-0.09,0.14-0.17,0.23-0.23s0.2-0.09,0.31-0.09C54.99,1.38,53.23,2.35,53.43,1.79z M52.6,17.03
		c0.36-0.68,0.88-0.68,1.1-0.02c0.23,0.65,1.15,0.45,1.08,1.06s-0.68,0.36-0.68,0c0-0.36-0.43,0.05-0.61-0.77s-0.79,0-0.29,0.63
		C54.04,19.28,52.21,17.46,52.6,17.03z M48.92,12.45c-0.11-0.68,2.5,1.38,2.71,1.26c0.2-0.11,1.53,1.67,0.34,0.88
		c-0.59-0.29-0.65-0.2-0.59,0.43c0.07,0.63-0.02,0.77-0.32,0.63c-0.63-0.29,0.16-1.69-0.63-2.1c-0.34-0.43-0.61-0.68-0.34,0
		c0.27,0.68-0.74,1.69-1.65,1.4c-0.9-0.29,0.07-1.31-0.56-2.01C47.25,12.25,49.1,13.17,48.92,12.45z M47.59,13.74
		c-0.02,0.68-0.59,0.63-0.59,0C47.01,13.04,47.61,13.06,47.59,13.74z M42.81,10.02c0.34-0.34,0.36-0.07,0.23,0.2
		c-0.14,0.27,0.11,0.23,0.5,0.14c0.38-0.09,0.61-0.34,0.7,0.11c0.09,0.45,1.1,0.36,1.24,0.72s0.18,0.61-0.16,0s-0.77,0.27-1.24-0.36
		C43.6,10.2,42.52,11.89,42.81,10.02z"/>
	<path class="st1" d="M49.91,23.48c0.07-0.36-1.31-0.32-1.33-0.16C48.56,23.48,49.91,23.91,49.91,23.48z"/>
	<path class="st1" d="M30.14,50.73c-0.01-0.01-0.03-0.03-0.05-0.04c-0.01,0.02-0.02,0.04-0.04,0.05L30.14,50.73z"/>
	<path class="st1" d="M72.62,59.49c-0.25,0.74-1.67,0.05-1.33,0.54c0.08,0.12,0.11,0.2,0.09,0.24l1.58-0.77
		c0.09-0.12,0.16-0.21,0.16-0.26C73.11,59.02,72.89,59.13,72.62,59.49z"/>
	<path class="st1" d="M46.78,56.94c-0.32,0.43,0.02,0.83,0.25,0.14l-0.02,0.02C47.25,56.58,47.1,56.51,46.78,56.94z"/>
	<path class="st1" d="M41.91,51.96l-0.11,0.11c0.09-0.1,0.15-0.22,0.17-0.35c0.02-0.13,0-0.27-0.06-0.39
		C41.64,50.96,41.66,52.61,41.91,51.96z"/>
	<path class="st1" d="M43.74,52.59c-0.16-0.36-0.34-0.38-0.38-0.02c-0.05,0.36,0.74,0.5,0.5,0L43.74,52.59z"/>
	<path class="st1" d="M59.95,29.86c0-0.2-0.25-0.34-0.54-0.34C58.44,29.61,59.95,30.74,59.95,29.86z"/>
	<path class="st1" d="M55.84,45.89c-0.36-0.7-0.32,1.33,0.36,1.01c0.34,0,0.43-0.11,0.2-0.27C56.15,46.44,55.96,46.19,55.84,45.89z"
		/>
	<path class="st1" d="M12.04,50.47c-0.2,0.47-0.16,0.5,0.16,0.2C12.76,50.18,12.24,50,12.04,50.47z"/>
	<path class="st1" d="M39.68,43.3l-0.05,0.07c-0.56,0.36-0.54-1.92-0.65-0.47C38.87,44.34,40.38,43.3,39.68,43.3z"/>
	<path class="st1" d="M24.75,38.88c0.09,0,0.18-0.03,0.25-0.1s0.11-0.15,0.11-0.24h0.09C25.25,37.68,24.28,38.79,24.75,38.88z"/>
	<path class="st1" d="M28.54,61.61c-0.07,0.34,1.06,0.5,0.83,0C29.22,61.25,28.61,61.27,28.54,61.61z"/>
	<path class="st1" d="M18.78,17.93c0.01-0.08,0.03-0.14,0.05-0.21l-0.25,0.12C18.64,18.57,18.63,18.73,18.78,17.93z"/>
	<path class="st1" d="M25.68,48.1c-0.14-0.81-1.42-0.54-0.25,0.11c0.45,0.36,0.47,0.34,0.32-0.14L25.68,48.1z"/>
	<path class="st1" d="M25.74,22.82c0.25-0.18,0.25-0.5,0.25-0.65v-0.02C25.7,21.02,24.93,23.7,25.74,22.82z"/>
	<path class="st1" d="M16.52,53.04c0-0.23-0.72-0.18-0.68,0.25C15.89,53.72,16.52,53.22,16.52,53.04z"/>
	<path class="st1" d="M8.97,25.15C8.68,25.44,8.97,25.26,8.97,25.15L8.97,25.15z"/>
	<path class="st1" d="M53.77,31.57c-0.32,0.43,0.05,0.83,0.27,0.14v0.07C54.27,31.12,54.08,31.14,53.77,31.57z"/>
	<path class="st1" d="M44.48,47.33c-0.18,0.25,0.47,1.74,0.47,0.47l-0.04,0.16C44.91,47.2,44.66,47.09,44.48,47.33z"/>
	<path class="st1" d="M21.46,56.92c0.41,0,0.74-0.16,0.74-0.34C22.48,55.7,19.93,57.05,21.46,56.92z"/>
	<path class="st1" d="M53.77,61.7c0.2,0.32,0.5,0.5,0.5,0v-0.09C54.31,61.22,53.57,61.38,53.77,61.7z"/>
	<path class="st1" d="M37.9,21.52c0.05-0.38-0.7-0.32-0.5,0C37.6,21.83,37.9,22.01,37.9,21.52z"/>
	<path class="st1" d="M62.67,58.77c0.5-0.07-0.18-0.47,0.32-0.9v0.16C63.62,56.58,61.39,59.17,62.67,58.77z"/>
	<path class="st1" d="M25.02,66.05c0.2,0.34,0.52,0.52,0.52,0v-0.11C25.54,65.6,24.82,65.71,25.02,66.05z"/>
	<path class="st1" d="M30.25,50.72l-0.11,0.01C30.19,50.75,30.23,50.76,30.25,50.72z"/>
	<path class="st1" d="M41.1,23.05c0.23-0.56-0.09-0.9-0.34-0.34C40.51,23.27,40.74,23.88,41.1,23.05z"/>
	<path class="st1" d="M63.13,32.43c-0.27,0.25,0.48,0.91,0.49,0.26C63.6,32.15,63.39,32.19,63.13,32.43z"/>
	<path class="st1" d="M68.96,37.21c0.09,0,0.18-0.04,0.24-0.1s0.1-0.15,0.1-0.24c0.02-0.43-0.68-0.43-0.68,0
		c0,0.09,0.04,0.18,0.1,0.24S68.87,37.21,68.96,37.21z"/>
	<path class="st1" d="M30.03,50.11c-0.55-0.6-0.2,0.35,0.07,0.58C30.19,50.57,30.05,50.34,30.03,50.11z"/>
	<path class="st1" d="M63.62,32.75v-0.07c0,0.01,0,0.01,0,0.02C63.62,32.71,63.62,32.73,63.62,32.75z"/>
	<path class="st1" d="M62.18,33.67c0.81,0.36-0.02-0.36,0.43-0.99C63.44,30.51,60.6,33.67,62.18,33.67z"/>
	<path class="st1" d="M33.46,52.43l-0.11,0.02c-0.09-0.38-0.32-0.54-0.34-0.56C32.04,52.21,34.22,54.37,33.46,52.43z"/>
	<path class="st1" d="M46.76,63.37v-0.02c-0.2-0.43-0.5-0.34-0.52,0.02S46.98,63.86,46.76,63.37z"/>
	<path class="st1" d="M37.33,14.26c0.14-0.2,0-0.52-0.27-0.97C36,11.86,36.88,15.07,37.33,14.26z"/>
	<path class="st1" d="M14.52,53.24c0.09,0,0.18-0.04,0.24-0.1c0.06-0.06,0.1-0.15,0.1-0.24s-0.04-0.18-0.1-0.24
		c-0.06-0.06-0.15-0.1-0.24-0.1c-0.09,0-0.18,0.04-0.24,0.1c-0.06,0.06-0.1,0.15-0.1,0.24s0.04,0.18,0.1,0.24
		C14.34,53.21,14.43,53.24,14.52,53.24z"/>
	<path class="st1" d="M36.75,56.9c0.34,0,0.34-0.16,0.34-0.34l-0.02,0.02C36.82,55.75,35.89,56.9,36.75,56.9z"/>
	<path class="st1" d="M6.96,25.28c0.29,0.14,0.5,0.34,0.5,0.47c-0.29,1.33,1.04,0.14,1.04-0.27C8.68,24.7,5.79,24.51,6.96,25.28z"/>
	<path class="st1" d="M31.45,53.63c-0.32,0.59,0.47-0.02,0.79,0.29c0.32,0.32,0.36,0.54,0.43-0.16s-0.72-0.34-0.47-1.04l-0.11,0.02
		c0.23-0.68-0.56-0.65-0.88-0.02C30.89,53.36,31.76,53.04,31.45,53.63z"/>
	<path class="st2" d="M52.17,1.92c0.27,0.06,0.47-0.32,0.59-0.79L52.01,1.5c-0.03,0.04-0.05,0.08-0.09,0.13
		C51.45,2.24,51.69,2.03,52.17,1.92z"/>
	<path class="st2" d="M54.9,1.2c0.34,0.31-0.22-0.37-0.68-0.78l-0.39,0.19c0,0.01,0.01,0.02,0.01,0.03
		C54.11,1.36,54.29,0.64,54.9,1.2z"/>
	<path class="st2" d="M53.97,1.47c-0.11,0-0.22,0.03-0.31,0.09s-0.17,0.13-0.23,0.23C53.23,2.35,54.99,1.38,53.97,1.47z"/>
	<path class="st2" d="M55.93,4.2c0,0.54,0,0.34,0.29,0c1.08-0.95,0.65,0.59,1.11,0.44l-0.47-0.96c0,0,0,0,0-0.01l-0.32-0.66
		c-0.17,0.1-0.43,0.35-0.81,0.64C54.92,4.38,55.93,3.66,55.93,4.2z"/>
	<path class="st2" d="M32.24,11.98c0.47-0.2,0.32,0,0.27,0c-0.16,0.95,0,1.44,0.81,1.44s1.69,0.5,1.47,1.1s0,0.47,0.23,0.36
		c1.1-0.14,2.71,2.44,3.79,1.85c0.34-0.32,0.43-0.27,0.43,0.14c0.74,2.07,1.35-1.13,2.05,1.06c0.72,0.92,0,2.07,0.9,1.53
		c2.25-0.99-0.16,0.27,0.16,0.83c0.14,0.14,0.23,0,0.23-0.14c0-0.61,0.77-0.45,0.61,0.18c-0.16,0.63,1.06,0.29,0.83,0.86
		c-0.14,0.2,0,0.27,0.36,0.14c0.74-0.25,0.18,0.43,1.24,0.83c1.6,1.1,0.56-0.5,1.47-1.06c1.35-0.63-0.65,0.97,0.18,1.67
		c0.65,1.15-0.45,0-0.14,0.79c0.32,0.79,0.92,0.38,1.53,1.1c0.61,0.72,0.29-0.7,1.38,0.52c1.08,1.22,2.46,1.94,2.1,1.29
		s0.56-0.27,0.63,0.32c0.52,1.38,1.22,0,1.92,0.2c0.2,0.14,0.16,0.32,0,0.5c-0.81,0.56,1.13,0,0.61,0.92
		c-0.52,0.92,0.77,0,1.19,1.04c0.43,1.04,0.54,0.63,0.81,0.25c0-1.04,2.37,1.1,1.62,1.1s-0.34-0.72-0.86-0.52s-0.27,0.9,0.99,0.74
		s0.77,0.23,1.44,0.43c0.68,0.2,0.79-1.56,1.24-0.65s0.77,0.25,0.5-0.41c-0.27-0.65-1.35,0-1.51-0.54c-0.16-0.54,1.78-0.65,0.61-0.7
		c-1.17-0.05-0.41-0.7-1.44-0.83s-0.23-0.9-1.04-0.63c-0.81,0.27,0.2-0.59-0.59-0.56c-0.32,0-0.54-0.18-0.54-0.34
		c0-0.16-1.31-0.2-1.31-0.61s0-0.81-0.5-0.23c-0.5,0.59-0.47,0.56-0.7-0.45c-0.1-0.46-0.32-0.88-0.65-1.21
		c-0.33-0.34-0.74-0.57-1.2-0.68c-1.01,0-1.26-1.74-2.25-1.85s-2.39-2.01-2.98-1.98c-0.14-0.02-0.28-0.07-0.39-0.16
		s-0.19-0.22-0.24-0.35c-0.43-0.72-0.99-0.38-1.6-1.2c-0.61-0.81-0.68-0.63-0.88-0.29c-0.2,0.34-1.04,0-0.77-0.52
		c0.27-0.52-2.25-0.18-1.24-0.86c0.36-0.27,0.41-0.41,0-0.54c-0.41-0.14-1.19-1.2-1.4-0.86c-1.88-1.62-4.2-3.43-6.4-5.29l-1.15,0.56
		c0.16,0.11,0.32,0.28,0.36,0.49c0,0.23,0,0.25-0.11,0c-0.1-0.23-0.64,0.11-0.74-0.24l-0.83,0.41c0.12,0.06,0.29,0.23,0.52,0.56
		v-0.09c0.89,1.03-0.45-0.11-0.67-0.39l-1.23,0.6C31.69,11.85,32.03,12.07,32.24,11.98z M59.41,29.52c0.29,0,0.54,0.14,0.54,0.34
		C59.95,30.74,58.44,29.61,59.41,29.52z M53.5,23.95c0.05,0.1,0.08,0.21,0.08,0.32s-0.03,0.22-0.08,0.32
		C53.25,25.24,53.2,23.59,53.5,23.95z M51.58,23.84c0.56-0.74,1.62,1.13,1.04,0.83c-0.14-0.06-0.3-0.08-0.46-0.04
		c-0.15,0.03-0.29,0.11-0.4,0.22c-0.59,0.7-1.15-0.92-1.15-1.24C50.61,23.3,50.95,24.38,51.58,23.84z M49.28,22.42
		c0.99,1.13-0.72-0.34-0.7-0.45C48.61,21.85,48.85,21.88,49.28,22.42z M49.91,23.48c0,0.43-1.35,0-1.33-0.16
		C48.61,23.16,49.98,23.12,49.91,23.48z M38.93,14.73c0.95,1.2-0.65-0.54-0.83,0c-0.02,0.04-0.03,0.09-0.04,0.14
		c0,0.05,0.01,0.1,0.03,0.14s0.05,0.09,0.08,0.12c0.04,0.03,0.08,0.06,0.13,0.07c0.29,0.14,0.32,0.18,0,0.18
		C36.95,15.36,37.96,13.2,38.93,14.73z M37.06,13.29c0.27,0.45,0.41,0.77,0.27,0.97C36.88,15.07,36,11.86,37.06,13.29z"/>
	<path class="st2" d="M39.29,7.87c0.06-0.07,0.08-0.14,0.09-0.2l-0.71,0.35C38.89,8.07,39.16,8.05,39.29,7.87z"/>
	<path class="st2" d="M44.07,10.83c0.47,0.63,0.9-0.25,1.24,0.36s0.29,0.36,0.16,0s-1.15-0.27-1.24-0.72
		c-0.09-0.45-0.32-0.2-0.7-0.11c-0.38,0.09-0.63,0.14-0.5-0.14c0.14-0.27,0.11-0.54-0.23-0.2C42.52,11.89,43.6,10.2,44.07,10.83z"/>
	<path class="st2" d="M25.68,14.93c1.19-0.18,1.29-0.14,0.97,0.29c-0.86,1.6,0.7,0,1.08,0.63c0.38,0.63-0.54-0.23-0.52,0.25
		c0.02,0.47,6.06,5.48,5.55,4.51c-0.03-0.05-0.05-0.1-0.06-0.15c-0.01-0.05-0.01-0.11,0.01-0.16c0.01-0.05,0.04-0.1,0.07-0.15
		c0.03-0.04,0.07-0.08,0.12-0.11c0.41-0.14,0.2-1.44,0.63-1.51c0.61,0.29-1.29,3.47,0.63,1.67c0.83-0.79,0.99-0.32,0.2,0.52
		c-0.79,0.83,0.14,1.51,0.83,1.42c1.22-0.16,2.95,1.96,3.38,2.25c0.16-0.11,0.72,0.16,1.22,0.63c1.49,1.96,2.07-0.74,2.25,0.86
		c-0.23,0.38,1.01,1.08,1.31,0.77c0.34,0.14,0.14,1.13,1.19,1.1s1.67,1.96,3.18,1.74c0.29,0-0.63-1.96-0.16-1.94
		c0.47,0.02,0.32,0.2,0.32,0.41c0.56,0.43,1.96-2.5,0.81,0.43c-0.32,0.74,0.92,0.59,0.86,0c0-0.25,0.18-0.5,0.34-0.5
		c0.74,0,0.27-0.72-0.63-1.1c-0.9-0.38-1.31-1.94-2.25-1.67c-1.38,0.36,2.48,1.24-1.15,2.82c0.43-0.74,1.08-1.35,0-2.25
		c-0.25-0.25-0.29-0.36,0-0.23c0.63,0.34,0.45,0-0.32-0.92c-0.41-0.41-0.63-0.54-0.5-0.34c0.34,0.68-0.56,0.36-1.04,0.63
		c-0.47,0.27-0.54,0.16,0-0.34s0.68-0.54-0.29-1.4c-0.97-0.86-1.51-0.29-2.01-1.01c-0.5-0.72-0.77,0-1.38-0.79
		c-0.99-2.12-2.71,2.03-1.83,1.51c0.18-0.11,0.32,0,0.32,0.29c0.29,1.06-1.94,0.11-1.06-0.54c1.78-1.96-1.98-1.38-0.63-2.25
		c0.29,0,0.97-1.22,0.23-0.9c-0.74,0.32-1.06-1.51-1.53-1.26c-0.47,0.25-3.29-2.75-3.54-1.33c-0.7,0.86-0.5,0-0.14-0.36
		c0.36-0.36-0.97-2.25-1.6-1.58c-0.63,0.68-1.24,0.2-0.74-0.41c0.5-0.61-0.59-0.97-1.26-0.43c-0.68,0.54-0.47,0.36-0.27,0
		c0.16-0.27,0.09-0.59-0.1-0.87l-3.63,1.78C24.88,15,25.27,15,25.68,14.93z M45.07,26.88c0.32-0.41,1.08-0.07,0.54,0.38v0.02
		C45.18,27.72,44.75,27.29,45.07,26.88z M44.48,27.02c0,0.27-0.14,0.41-0.32,0.29S44.59,25.96,44.48,27.02z M40.76,22.71
		c0.25-0.56,0.56-0.23,0.34,0.34C40.74,23.88,40.51,23.27,40.76,22.71z M37.9,21.52c0,0.5-0.29,0.32-0.5,0
		C37.2,21.2,37.94,21.13,37.9,21.52z"/>
	<path class="st2" d="M48.45,14.95c0.9,0.29,1.92-0.72,1.65-1.4c-0.27-0.68,0-0.43,0.34,0c0.79,0.41,0,1.8,0.63,2.1
		c0.29,0.14,0.38,0,0.32-0.63c-0.07-0.63,0-0.72,0.59-0.43c1.19,0.79-0.14-0.99-0.34-0.88c-0.2,0.11-2.82-1.94-2.71-1.26
		c0.18,0.72-1.67-0.2-1.04,0.5C48.52,13.65,47.55,14.66,48.45,14.95z"/>
	<path class="st2" d="M17.18,20.82c-0.83,1.67,0.83-0.27,1.29-0.68c0.79,0.7,1.67,1.98,2.77,1.58c0.63,0,0.92,0,0.79,0.11
		c-0.14,0.11,2.01,1.13,1.51,1.42c-0.11,0.5,1.92,1.22,2.25,1.94s0.74,0.63,0.77,0.38c0-0.7-1.51-1.35-0.56-1.98
		c0.32-0.81,2.39,0.54,0.99,0.16c-1.76-0.43-0.72,1.29,0.52,1.04c0.7-0.38,0.83,1.01,0.36,1.06c-0.47,0.05-0.34,0.56,0.23,0.81
		c0.56,0.25,0.41,0,0.32-0.14c-0.18-0.65,0.59-0.25,0.5,0.34c-0.09,0.59,0.61,0.97,0.56,0.41c0-0.14,0.29-0.25,0.88-0.25
		c1.08,0,1.67-0.63,0.36-0.61c-2.8-0.36,3.36-0.97-0.88-2.39c-0.79,0.11-1.98-1.71-2.25-1.22c0.14,0.81-1.1-0.38-0.83-0.56
		c0.27-0.18-1.44-1.04-1.56-0.63c-0.11,0.41-0.29,0-0.43-0.56c0-0.99-1.04-0.65-1.2-1.31c0-0.23-0.11-0.27-0.27,0
		c-0.16,0.27-1.17,0.61-0.9,0.18c0.72-1.15-2.25-1.44-2.64-2.25c-0.06-0.13-0.12-0.22-0.18-0.3l-0.74,0.36
		c-0.02,0.07-0.04,0.13-0.05,0.21c-0.15,0.8-0.14,0.64-0.2-0.09l-2.53,1.24C16.64,19.88,18.03,19.88,17.18,20.82z M25.99,22.15v0.02
		c0,0.16,0,0.47-0.25,0.65C24.93,23.7,25.7,21.02,25.99,22.15z"/>
	<path class="st2" d="M61.23,13.38c-0.83,0.36-0.9-1.31-1.87-0.52c0,0.16-0.47,0.23-0.79,0.14c-0.32-0.09-1.58,0.99-1.01,1.17
		c0.56,0.18,0,1.26,1.01,0.9c1.01-0.36,1.24,1.17,1.67,0c0-1.2,1.92-1.38,0.83-0.2c-1.33,0.36,0.86,3.34,0.36,1.78
		c-0.5-1.56,0.83-1.22,0.5,0.34c0.11,0.34,0.79-0.32,0.88,0.52c0.08,0.71,0.18,0.68,0.87,0.11l-1.2-2.45
		c-0.29,0.11-1.35,0.15-1.09-0.26c0.18-0.29,0.58-0.29,0.88-0.19l-0.28-0.57c-0.13,0.03-0.12-0.05-0.1-0.21l-0.32-0.65
		C61.48,13.3,61.37,13.32,61.23,13.38z"/>
	<path class="st2" d="M47.59,13.74c0.02-0.68-0.59-0.7-0.59,0C47.01,14.37,47.57,14.41,47.59,13.74z"/>
	<path class="st2" d="M25.68,15.11c-0.05-0.02-0.1-0.03-0.15-0.03c-0.05,0-0.1,0.01-0.15,0.03c-0.05,0.02-0.09,0.06-0.12,0.1
		c-0.03,0.04-0.05,0.09-0.06,0.14c-0.01,0.05-0.01,0.1,0,0.15c0,0.43,0.68,0.43,0.65,0c0.01-0.05,0.01-0.1,0-0.15
		s-0.03-0.1-0.06-0.14C25.77,15.16,25.73,15.13,25.68,15.11z"/>
	<path class="st2" d="M64.49,19.27l-0.65-1.34C63.67,18.3,63.88,18.87,64.49,19.27z"/>
	<path class="st2" d="M53.21,17.93c-0.5-0.63,0.11-1.44,0.29-0.63s0.61,0.41,0.61,0.77c0,0.36,0.61,0.61,0.68,0
		s-0.86-0.41-1.08-1.06c-0.23-0.65-0.74-0.65-1.1,0.02C52.21,17.46,54.04,19.28,53.21,17.93z"/>
	<path class="st2" d="M12.85,21.18c0.34-0.14,1.87,0.61,2.01,0s-1.47-0.14-0.74-0.77c0.15-0.13,0.25-0.32,0.3-0.53l-1.48,0.72
		C12.81,20.88,12.41,21.15,12.85,21.18z"/>
	<path class="st2" d="M40.11,18.43c-0.32,0.38,1.24,0.86,1.04,0.32C40.94,18.2,40.33,18.07,40.11,18.43z"/>
	<path class="st2" d="M57.89,19.53c-0.97-0.83-1.15-0.83-1.42-0.16C55.64,21.07,59.95,21.07,57.89,19.53z"/>
	<path class="st2" d="M37.9,20.01c-0.27,0.29-0.27,0.5,0,0.5C38.64,20.5,38.78,18.95,37.9,20.01z"/>
	<path class="st2" d="M61.28,22.33c0.52,0.86,1.89-0.38,2.01-0.9s-0.97,1.4-1.4,0.43c-0.43-0.97,0.41,0,0.59-0.41
		s-0.61,0.32-0.56-0.54c0.05-0.86-0.47,0.47-1.26,0.25c-1.29,0.45-0.79-2.8-1.78-1.08C58.86,21.31,60.4,21.7,61.28,22.33z"/>
	<path class="st2" d="M16.84,20.16c0-0.52-0.74-0.5-0.5,0C16.55,20.5,16.84,20.68,16.84,20.16z"/>
	<path class="st2" d="M61.28,20.16c0-0.43-1.01-0.43-0.99,0C60.28,20.59,61.28,20.59,61.28,20.16z"/>
	<path class="st2" d="M15.82,22.22c0.41-0.79-0.56-1.2-0.74-0.34C14.86,22.73,15.42,23,15.82,22.22z"/>
	<path class="st2" d="M20.72,23.61c1.13,0.99-0.74-1.62-0.92-1.26s-1.98-1.85-1.01-0.27c0.47,0.9,0.5,1.83,0,1.1
		c-0.2-0.32-0.32-0.34-0.32-0.11C18.82,24.61,19.59,22.62,20.72,23.61z"/>
	<path class="st2" d="M18.08,22.94c0.05-0.63-0.92-0.99-0.9-0.18C17.18,23.48,18.03,23.57,18.08,22.94z"/>
	<path class="st2" d="M63.28,24.38c-0.27-0.52,0.45-1.51,1.01-0.63c1.17,1.13,1.31-2.73-1.01-0.56
		C62.11,23.75,63.1,24.49,63.28,24.38z"/>
	<path class="st2" d="M5.52,24.49c-0.61,0.34,0.5,0.63,0.18,1.2c-0.03,0.06-0.04,0.13-0.04,0.2c0,0.07,0.02,0.14,0.05,0.2
		s0.07,0.12,0.13,0.16c0.05,0.04,0.12,0.08,0.18,0.09c0.07,0.02,0.14,0.02,0.21,0.01c0.07-0.01,0.13-0.04,0.19-0.08
		s0.1-0.09,0.14-0.16c0.03-0.06,0.05-0.13,0.06-0.2c0.29-0.7,0.56,2.05,1.29,1.6c0.72-0.45-0.16,1.06,0.83,0.25
		c0.43-0.59,1.4-0.38,1.31-0.88c-0.09-0.5,1.98,0.5,2.25,0c0.27-0.5-0.59,0.18-0.77-0.36c-0.18-0.54-2.25-1.67-2.55-1.38
		c0,0.11-0.29,0.29,0,0c-0.36-2.46-1.01,0.18-1.35-1.04c-0.23-0.56-0.25-0.56-0.77,0c-0.52,0.56-0.45,0.47-0.32,0.14
		c0.04-0.1,0.03-0.29,0-0.51L6,24C5.92,24.19,5.77,24.35,5.52,24.49z M8.5,25.48c0,0.41-1.33,1.6-1.04,0.27
		c0-0.14-0.2-0.34-0.5-0.47C5.79,24.51,8.68,24.7,8.5,25.48z"/>
	<path class="st2" d="M22.86,24.36c0-0.72-0.99-0.29-0.34-1.01c0.65-0.72-0.27-0.59-0.45,0C21.69,24.15,22.66,25.6,22.86,24.36z"/>
	<path class="st2" d="M65.63,23.64c-0.08,0.08,0.59,0.24,1.14,0.29l-0.23-0.46C66.09,23.44,65.63,23.5,65.63,23.64z"/>
	<path class="st2" d="M20.36,24.52c0.41,0.63,1.42-0.43,0.29-0.34C20.38,24.18,20.27,24.36,20.36,24.52z"/>
	<path class="st2" d="M2.32,27.27c0.47-0.09,0.3-0.8-0.02-1.46l-0.67,0.33C1.64,26.99,1.62,27.88,2.32,27.27z"/>
	<path class="st2" d="M66.33,25.19c0.54-0.18-0.43-1.22-0.38-0.34c0.01,0.09,0.06,0.18,0.13,0.24
		C66.14,25.16,66.23,25.19,66.33,25.19z"/>
	<path class="st2" d="M23.2,26.48c0.4,0.25,0.86,0.38,1.33,0.38c1.38,0-0.25,0.43,0,0.83s0.61,0,1.08-0.34
		c1.4-1.17,0.47,0.54,1.15,0.83c0.74-0.45-0.5-2.25-0.83-1.78c-0.34,0.47-0.45,0-0.45-0.16s-0.99-0.95-0.74-0.23
		C25.38,26.79,22.25,25.89,23.2,26.48z"/>
	<path class="st2" d="M32.89,25.85c0.02-0.45-0.95-0.38-1.01-0.2C31.88,25.78,32.87,26.3,32.89,25.85z"/>
	<path class="st2" d="M10.84,27.83c0,0.32,1.49,1.04,0.65,0.2C11.04,27.45,10.84,27.38,10.84,27.83z"/>
	<path class="st2" d="M14.79,31.42c1.4-1.83,1.76,1.56,2.25,0c0-0.27-0.18-0.5-0.34-0.5c-0.38-0.34,0.14-0.97-0.95-1.31
		c-1.08-0.34-0.59-1.33-1.62-1.15c-0.47,0.14-0.68,0-0.68-0.36c-0.09-0.83-1.08-0.68-0.95,0.38c-0.01,0.54-0.08,1.08-0.2,1.6
		c-0.16,0.47,0,0.47,0.29,0c0.29-0.47,1.92-1.31,1.92-0.83c0,1.13-1.6,0.41-1.67,1.17c-0.07,0.77,0.7,0.36,0.5,0.86
		c-0.2,0.5,0,0.25,0.29,0.14C14.47,31.08,13.91,32.38,14.79,31.42z"/>
	<path class="st2" d="M31.29,28.87c0.86-0.09,0.23-1.6,0-1.17C31.74,28.01,30.43,28.96,31.29,28.87z"/>
	<path class="st2" d="M32.78,28.03c-0.25-0.7-0.47-0.77-0.47,0C32.31,28.62,33.03,28.73,32.78,28.03z"/>
	<path class="st2" d="M4.48,28.17c0,0.25,0.61,0.9,0.68,0.38C5.23,28.03,4.57,27.65,4.48,28.17z"/>
	<path class="st2" d="M28.81,28.26c-0.56,0.41-0.88-0.77-0.9,0C27.62,30.04,29.92,27.83,28.81,28.26z"/>
	<path class="st2" d="M33.79,29.5c1.08,0.77,1.22-1.42,0.32-1.31c-0.11,0-0.16,0.16-0.02,0.41c0.16,0.27,0,0.29-0.29,0.16
		C33.03,28.46,33.1,29.09,33.79,29.5z"/>
	<path class="st2" d="M58.35,34.55c0.65-0.07,0.56-0.95-0.41-1.67c-1.44-1.13-0.63,0.54-1.98-0.99c-0.9-1.13-1.33-0.74-1.83-1.6
		c-0.02-0.07-0.05-0.14-0.1-0.19s-0.11-0.1-0.17-0.13c-0.07-0.03-0.14-0.05-0.21-0.05c-0.07,0-0.15,0.01-0.21,0.04
		c-0.29,0-0.5,0-0.5-0.29c0-0.68-0.7-1.01-1.04-0.47s-0.07-1.58-1.98-0.32c-0.97,0.45,1.26,1.49,1.01,2.25s0,0.5-0.32,0.16
		s-0.86-0.34-0.86-1.04s-0.74-1.01-0.83-0.36c0.41,0.89,1.12,1.6,2.01,2.01c0.16,0,0.29,0.16,0.27,0.41c-0.43,0.5,3.67,0.56,3.16,0
		c0-0.72,2.86,1.08,1.67,1.33c-0.16,0,0,0.11,0.14,0c0.14-0.11,0.88,1.15,0.41,1.04c-0.47-0.11,0.41,2.68,0.95,1.33
		C58.01,35.47,57.69,34.62,58.35,34.55z M54.04,31.78v-0.07c-0.23,0.7-0.59,0.29-0.27-0.14C54.08,31.14,54.27,31.12,54.04,31.78z"/>
	<path class="st2" d="M37.33,30.63c0.27,0,0.41,0.14,0.29,0.34s0,0.32,0.14,0.32c0.65-0.29,0.68-2.41-0.43-1.76
		C36.72,29.75,36.79,30.63,37.33,30.63z"/>
	<path class="st2" d="M35.6,31.53c1.01,0.05,0.16-3.04,0-1.51C35.87,30.58,35.06,31.35,35.6,31.53z"/>
	<path class="st2" d="M34.38,30.87c0.2,0.32,0.5,0.5,0.52,0C34.92,30.38,34.15,30.36,34.38,30.87z"/>
	<path class="st2" d="M17.88,32.02c-1.04-0.2-0.36,2.55,0,2.48c0.95,0.16-1.13-2.25,0.54-2.07c1.67,0.18-0.18-1.13-0.23-0.65
		C18.19,32.02,18.06,32.11,17.88,32.02z"/>
	<path class="st2" d="M31.88,31.78c0.01,0.09,0.05,0.17,0.12,0.24c0.07,0.06,0.15,0.1,0.24,0.1C32.8,32.09,31.83,31.01,31.88,31.78z
		"/>
	<path class="st2" d="M62.04,31.71v0.07c-0.13,0.05-0.24,0.14-0.31,0.26c-0.08,0.12-0.12,0.25-0.11,0.39c0,0.92-0.88-0.52-1.15,0
		c-0.27,0.52,1.35,1.71,2.05,1.71c0.27,0,0.41,0.14,0.29,0.29c-0.11,0.16,0.74,1.2,1.04,0.95c0.29-0.25,0.36,0,0.56,0.29
		c0.2,0.29,1.96,0.7,2.71,0.77c-0.29-0.25-1.78-1.15-1.2-1.44c0.59-0.29,1.1,1.22,1.71,0.43c0,0-2.25-1.94-2.62-1.67
		c-0.5,1.35-1.24-1.24-0.23-0.83c0.25,0.11,0.5,0,0.5-0.14c0-0.14-0.29-0.32-0.63-0.32C63.58,32.27,63.6,30.94,62.04,31.71z
		 M62.61,32.68c-0.45,0.63,0.38,1.35-0.43,0.99C60.6,33.67,63.44,30.51,62.61,32.68z M63.62,32.75c0-0.02,0-0.03,0-0.05
		c-0.02,0.64-0.76-0.02-0.49-0.26c0.26-0.24,0.48-0.28,0.49,0.26c0-0.01,0-0.01,0-0.02V32.75z"/>
	<path class="st2" d="M15.69,32.57c0,0.95,1.15,1.6,1.15,0.7S15.53,30.99,15.69,32.57z"/>
	<path class="st2" d="M38.69,32.41c-0.25-0.7-0.45-0.63-0.45-0.25C38.24,32.47,38.93,33.11,38.69,32.41z"/>
	<path class="st2" d="M40.24,32.54c0-0.09-0.04-0.18-0.1-0.24c-0.06-0.06-0.15-0.1-0.24-0.1c-0.09,0-0.18,0.04-0.24,0.1
		c-0.06,0.06-0.1,0.15-0.1,0.24C39.57,32.97,40.24,32.95,40.24,32.54z"/>
	<path class="st2" d="M41.23,32.86c-0.05-0.36-0.32-0.34-0.5,0C40.49,33.35,41.28,33.22,41.23,32.86z"/>
	<path class="st2" d="M20.56,33.58c-0.68,0.97-1.06-0.83-1.47-0.54v0.07c-0.25,0.36,0.23,1.17,0.63,1.1c0.41-0.07,0.86,2.25,0,0.83
		c-0.5-0.68-0.5-0.68-0.54,0c-0.59,1.29,4.28,1.13,1.87,0.77c-1.47,0.16,0-0.97-0.43-1.47c-0.43-0.5,0.2-0.25,0.9,0.18
		C23.65,35.65,21.24,32.61,20.56,33.58z"/>
	<path class="st2" d="M59.61,36.04c0.09-1.22-0.7-2.23-0.56-0.36C59.25,37.64,59.52,37.26,59.61,36.04z"/>
	<path class="st2" d="M42.07,36.22c-0.25,0.5,0.97,0.27,0.83-0.34c-0.14-0.61-1.22-0.88-1.33-0.34
		C41.57,35.97,42.32,35.72,42.07,36.22z"/>
	<path class="st2" d="M58.23,35.54c-0.14,0-0.34,0.27-0.43,0.56C57.31,38.36,59.83,35.65,58.23,35.54z"/>
	<path class="st2" d="M61.01,36.29c-0.5,0.72,0,1.26,0.36,0.25C61.73,35.52,61.61,35.41,61.01,36.29z"/>
	<path class="st2" d="M22.09,37.14c-0.25,0.7,0.56,0,1.04,0.41c1.08,0.63,3.45-1.58,0.86-1.51c-0.88-0.09-1.13-0.02-0.7,0.25
		c0.41,0.23,0.41,0.38,0,0.72C22.66,37.8,22.95,35.63,22.09,37.14z"/>
	<path class="st2" d="M67.57,37.55c0.2,0,0.29,1.38,0.59,1.24c0.29-0.14,1.6,0.79,1.47,0c-0.14-0.79-0.86-0.25-0.32-1.17
		s0.14-2.19-1.15-0.9C67.63,37.19,67.36,37.55,67.57,37.55z M69.3,36.87c0,0.09-0.04,0.18-0.1,0.24s-0.15,0.1-0.24,0.1
		c-0.09,0-0.18-0.04-0.24-0.1s-0.1-0.15-0.1-0.24C68.63,36.44,69.33,36.44,69.3,36.87z"/>
	<path class="st2" d="M45.04,37.28c0.65,0.18-0.9-1.76-1.13-0.7C43.92,37.01,44.91,36.8,45.04,37.28z"/>
	<path class="st2" d="M46.91,36.67c-0.05-0.25-0.72-0.14-0.68,0.25C46.24,37.35,46.96,36.92,46.91,36.67z"/>
	<path class="st2" d="M26.62,38.2c0.47-0.83-2.12-1.4-1.08-0.63c0.81,0.56,0.25,1.17-0.54,0.41c-0.36-0.34-0.56-0.43-0.45-0.2
		c0.03,0.05,0.04,0.1,0.05,0.15c0.01,0.05,0,0.11-0.02,0.16c-0.02,0.05-0.04,0.1-0.08,0.14c-0.04,0.04-0.08,0.07-0.13,0.09
		c-0.99,0.74,2.93,2.68,2.84,1.13c-0.14-0.2,0-0.27,0.5-0.16c1.1,0.34,0.92-0.92-0.16-0.68C26.87,38.61,26.62,38.61,26.62,38.2z
		 M25.11,38.54c-0.01,0.09-0.05,0.18-0.11,0.24s-0.16,0.1-0.25,0.1c-0.47-0.09,0.5-1.2,0.45-0.34H25.11z"/>
	<path class="st2" d="M58.3,37.68c0,0,2.43,1.49,1.33,0.43C59.36,37.68,58.48,37.32,58.3,37.68z"/>
	<path class="st2" d="M70.23,38.38c0.09-0.09-0.9-1.4-0.41-0.41C69.93,38.32,70.14,38.47,70.23,38.38z"/>
	<path class="st2" d="M60.28,38.25c0,0.43,0.7,0,0.65-0.23S60.24,37.86,60.28,38.25z"/>
	<path class="st2" d="M66.21,39.92c-0.25,0.11-0.27-0.25-0.27-0.54c0-0.29,0-0.5-0.77,0c-0.77,0.5-1.53,0.34-1.47-0.56
		c0.07-0.9-0.99-1.44-0.65-0.27c0.36,0.9-1.35,1.62,0.36,1.56c0.83-0.29,1.29,0.72,1.89,0.61c0.61-0.11,0.27,0.63,0.77,1.04
		C66.89,43.25,66.46,39.8,66.21,39.92z"/>
	<path class="st2" d="M71.9,38.72c-0.29-0.18-0.29,0.07-0.41,0.38C70.99,40.12,72.19,38.9,71.9,38.72z"/>
	<path class="st2" d="M61.95,39.62c0,1.08,0.16,0.36,0.63-0.18C63.46,38.54,61.75,38.72,61.95,39.62z"/>
	<path class="st2" d="M29.08,39.65c0,0.34,0.29,0.5,0.41,0.41C29.6,39.96,28.59,38.65,29.08,39.65z"/>
	<path class="st2" d="M69.96,39.69c0,0.43,0.61,1.15,0.68,0.38C70.63,39.65,70.07,38.92,69.96,39.69z"/>
	<path class="st2" d="M73.05,40.12c0.41-0.68,0.2-1.24-0.16-0.41C72.57,40.59,72.64,40.8,73.05,40.12z"/>
	<path class="st2" d="M14.11,54.42c0.09-0.04,0.2-0.05,0.29-0.03s0.19,0.08,0.25,0.16c0.29,0.5,1.06-0.18,1.38,0.41
		c0.32,0.59,0,0.34-0.14,0.16c-0.63-0.36-0.47,0,0.27,0.56c0.97,1.24,0.97-0.99,1.74-0.9c0.14,0.11,0,0.41-0.27,0.72
		c-1.1,1.04,1.01,0.86,1.24,1.49c0.56,0.65,0.34-2.66,1.04-2.46c0.34-0.2,0.29-0.38-0.25-0.68c-0.86-0.68-3.49-0.54-2.1,0
		c0.63,0-0.14,0.38-0.5,0.14c-0.36-0.25-0.5-0.47-0.36-1.15c0.14-0.68-1.33-2.64-1.8-1.22l-0.45,0.72c1.01-3.34-1.08-0.9-1.56-2.25
		c-0.27-0.97-1.49-0.61-1.74-1.2c0-0.16-0.18-0.23-0.41,0c-0.01,0.01-0.01,0-0.01,0.01l1.39,2.85c0.45-0.34,0.84-0.49,1.01,0.25
		c-0.33,0-0.58,0.1-0.77,0.23l0.75,1.54c0.08,0.01,0.14,0.03,0.22,0.03C14.52,53.47,13.71,54.44,14.11,54.42z M16.52,53.04
		c0,0.18-0.63,0.68-0.68,0.25C15.8,52.86,16.52,52.81,16.52,53.04z M14.28,52.67c0.06-0.06,0.15-0.1,0.24-0.1
		c0.09,0,0.18,0.04,0.24,0.1c0.06,0.06,0.1,0.15,0.1,0.24s-0.04,0.18-0.1,0.24c-0.06,0.06-0.15,0.1-0.24,0.1
		c-0.09,0-0.18-0.04-0.24-0.1c-0.06-0.06-0.1-0.15-0.1-0.24S14.21,52.73,14.28,52.67z M12.2,50.67c-0.32,0.29-0.36,0.27-0.16-0.2
		C12.24,50,12.76,50.18,12.2,50.67z"/>
	<path class="st2" d="M10.35,48.11l0.31,0.63C10.65,48.55,10.61,48.28,10.35,48.11z"/>
	<path class="st2" d="M49.4,40.14c-0.25-0.41-0.36-0.34-0.61,0C48.54,40.55,49.64,40.55,49.4,40.14z"/>
	<path class="st2" d="M67.95,40.98c0.05-0.38-1.01-0.92-0.99-0.18C66.96,41.29,67.91,41.36,67.95,40.98z"/>
	<path class="st2" d="M29.15,40.82c-0.11-0.23-0.25-0.16-0.38,0.2c-0.77,1.06,0.88,0.95,1.01,0.36
		C29.92,40.8,29.28,41.38,29.15,40.82z"/>
	<path class="st2" d="M71.67,41.22c-0.43-0.63-0.7-0.81-0.7-0.43C70.97,40.8,72.64,42.37,71.67,41.22z"/>
	<path class="st2" d="M74.78,41.04c-0.2,0.65-0.83,0-0.61,0.61s-0.45,1.22-0.54,0.41c0-0.29-0.14-0.43-0.34-0.34
		c-0.72,0.34,0.2,2.37,1.01,0.83c0.56-0.7,0.7-0.77,0.99-0.34c0.31,0.49,0.29,0.2,0.4-0.02l-0.38-0.77
		c-0.14-0.09-0.26-0.28-0.21-0.44l-0.12-0.25C74.9,40.79,74.81,40.89,74.78,41.04z"/>
	<path class="st2" d="M31.22,41.18c0,0.34,0.63,0.83,0.83,0.68C32.26,41.7,31.27,40.8,31.22,41.18z"/>
	<path class="st2" d="M48.27,48.39c-0.77,0.5-0.83,0.52-0.23-0.16c1.42-1.2-0.47-1.51-1.24-1.01c0,0.2-0.16,0-0.16-0.36
		s-1.74-1.6-2.25-1.17c-0.14,0.14-0.14,0,0-0.16c0.27-0.74-2.8-1.65-3.47-2.03c0-0.38-2.07-1.47-2.66-1.78c0,0.45,0,2.1-0.32,0.54
		c0.02-1.35-3.18-1.47-3.38-1.22c-0.54,0.9,0.88,1.92-0.34,1.62c-0.45-0.14-0.65,0-0.52,0.16s-0.92,0.65-0.18,0.92
		c0.47,0.74,1.22,1.98,2.62,1.87c1.01,0.36,3.16,2.25,4.31,2.25c0.68,0,1.87,1.92,1.53-0.16c0.16-0.38,1.08,1.22,0.83,1.4
		c-0.25,0.61,0.32,0.32,0.63,0.43c0.32,0.11,1.44,0,1.49,0.47c0.05,0.47,0.92,0.99,1.08,0.81c0.16-0.18,2.25,1.42,2.55,1.15
		c0.29-0.27,0.27,0.79,0.9,0.45c0.79,0.14,1.96,1.85,3.25,2.03c1.29,0.18,2.25,2.91,2.71,1.17c0.25-0.77,0.14,1.56,0.47,1.17
		c0.34-0.38,1.01,1.42,1.47,0.43c0.45-0.99-0.25,0.83,0.83,1.17c0.7,0.47,0.92,0.47,1.38,0c0.97-0.72-0.56,1.04,1.33,1.58
		c1.17,0.74,1.42,0.32,2.25,0.83c0.29,0.27,0.45,0.2,0.63-0.16c0.18-0.36,0.36-0.45,0.52-0.34c0.16,0.11,1.49-1.15,1.71-1.08
		c-0.72-0.43-1.8-2.03-2.8-2.1s0-0.7-0.88-0.68c-0.88,0.02-0.47-0.95-1.19-0.99c-0.72-0.05-0.32-0.74-1.08-0.63
		c-0.77,0.11-1.31,0-0.77-0.36c0.95-0.88-1.89-0.77-1.13,0.65c0.14,0.41,0,0.43-0.27,0c-0.83-0.79,1.08-1.6-0.47-2.25
		c-0.54-0.18-2.64-2.68-2.03-1.1c0.23,0.9-0.32,0.5-0.9-0.74c-0.32-0.79-1.24-0.59-1.53-0.92c-0.55-0.56-1.21-0.99-1.94-1.26
		C49.21,47.9,49.03,47.9,48.27,48.39z M38.98,42.89c0.11-1.44,0.09,0.83,0.65,0.47l0.05-0.07C40.38,43.3,38.87,44.34,38.98,42.89z
		 M44.48,47.33c0.18-0.25,0.43-0.14,0.43,0.63l0.04-0.16C44.95,49.07,44.3,47.58,44.48,47.33z M62.99,58.02v-0.16
		c-0.5,0.43,0.18,0.83-0.32,0.9C61.39,59.17,63.62,56.58,62.99,58.02z"/>
	<path class="st2" d="M63.87,41.22c0,0.29,1.29,0.83,1.53,0.61C65.65,41.61,63.87,40.8,63.87,41.22z"/>
	<path class="st3" d="M38.85,59.35c-0.02-0.01-0.04-0.03-0.05-0.04"/>
	<path class="st2" d="M58.98,64.47c0.2-0.14-0.72,0.36-0.59-0.25c0.14-0.61,0-0.29-0.34,0c-0.5,1.04-1.4-1.06-0.68-1.17
		c0.2,0,0.34,0,0.34,0.14c0,0.56,1.08,0.45,0.97-0.23c0-0.29,0-0.41-0.2-0.18c-0.16,0.88-2.41-1.06-0.86-0.9
		c1.44-0.27-2.93-1.06-2.07-1.33c0.23-0.16-1.33-1.89-1.17-0.92c-0.01,0.16-0.06,0.32-0.16,0.45s-0.23,0.23-0.38,0.28
		c-0.47,0.18-0.5,0.14-0.14-0.29c1.08-1.24-1.6-1.22-1.83-0.56c-0.23,0.65-1.44-0.29-1.04,0.59c0.16,0.41,0,0.52-0.34,0.34
		c-2.12,0,1.51-1.83,1.85-1.87c0.34-0.05,0.45,0,0-0.29c-0.45-0.29-0.99,0.2-0.92-0.43c0.07-0.63-0.81,0-0.79-0.88
		c0-0.29,0-0.41-0.16-0.2c-1.17,0-1.92-1.87-3.97-1.35c-3.27,0.36,0-0.95-0.95-2.25c-0.54-0.52-0.88-0.25-1.42-0.88
		c-0.54-0.63-1.62-0.27-1.94-1.04c-0.32-0.77-0.83,0-1.42-0.97s-0.63-0.72-0.99-0.23c-0.36,0.5-0.41,0.5-0.27-0.14
		c0.14-0.63-0.14-0.9-1.47-1.74c-1.33-0.83-1.94-0.47-2.07-1.17c-0.14-0.7-1.29-0.43-1.51-0.92c-1.67,0-4.35-3.11-5.55-1.15
		c-0.72,1.33,0.45-2.25-0.7-1.04c-0.72,0.32-0.14,1.04-0.63,1.22c-0.5,0.18,0.27,0.7-0.5,0.65c-0.77-0.05,0,1.26-0.5,1.35
		c-0.83-0.77-1.78-1.4-2.82-1.85c-2.59-1.06-2.55-2.25-4.51-2.25c0.18,0.56-0.43,1.13-0.63,0.36c0-0.16-0.14-0.23-0.34-0.14
		c-0.2,0.09,0.32-1.1-0.25-0.72c-1.15,0.32-2.48-2.01-3.79-0.83c-0.95,1.2,0.23,1.44,0.41,2.48c0.18,1.04,0.52,0.2,0.77,0.9
		c0.08,0.15,0.2,0.28,0.34,0.38c0.15,0.09,0.32,0.14,0.49,0.14c0.99,0,0.81,1.01,1.98,0.83c0.72,0,0.9,0,0.65,0.34
		c-0.25,0.34,0.45,0.95,0.97,0.41c0.52-0.54,0.38-0.16,0.41,0.43c-0.14,1.74,0.63-0.81,1.17-0.79c0.54,0.02,0.36,0,0,0.7
		c-0.74,0.88,1.01,2.39,1.17,1.04c0.2-0.7,0.2-0.7,0.25,0.16c0.05,0.86,0.47,0.45,0.7,0.88c0.23,0.43,2.25,1.22,2.25,1.67
		s1.31,0.86,2.25,0.72c0.41,0,0.59,0,0.47,0.38c-0.11,0.38,1.58,1.58,1.4,0.7c0-0.41,0.18-0.34,0.68,0.23
		c0.86,1.62,1.15,0.99,2.25,2.14c0.45,1.06,2.05,0.29,2.25,0.88c0.2,0.59,0.92,0.23,0.83,0.65c-0.09,0.43,1.35,0.29,0.74,0.56
		s0.38,1.42,0.86,0.72c0.43-0.34,0.47-0.34,0.27,0c-0.34,0.65,0.83,0.29,0.99,0.83c0.09,0.32,0.07,0.36,0,0.31
		c0.35,0.26,0.96,0.66,1.04,0.5c0.63-0.2,0.29,0.63,1.08,0.36c0.79-0.27,0.59,0,0.45,0.29c-0.14,0.29,0,0.47,0.38,0.47
		s0.95,0.92,1.1,1.44c0.2-0.27,1.4-2.25,0.97-0.9c-0.27,0.56,0.77,2.84,0.97,1.04c0.14-0.54,0.45-0.9,0.79-0.9
		c1.13,0-0.68,0.52,0,0.65c0.68,0.14-0.38,1.47,0.95,1.53c0.68,0.54,2.66-1.01,2.25-0.25c0.25,1.2,1.51-1.44,0-0.74
		s0.79-1.01-0.32-0.88c-2.12,1.13-1.47,0.52,0-0.59c-1.01-0.41-1.95-0.95-2.82-1.6c-1.08-0.97-1.74-0.2-2.25-1.17
		c-0.52-0.97-1.06-0.43-1.17-1.04c0-0.2-0.23,0-0.52,0.27c-0.29,0.27-0.47,0.43-0.38,0.14c0.09-0.29-1.13-1.56-1.6-1.98l-0.83,0.74
		c-0.43,0.41-0.63,0.5-0.38,0.2c0.52-0.74-0.25-1.53-0.88-0.9c-0.29,0.29-0.41,0.27-0.41-0.14s-0.95-0.77-0.99-1.26
		c-0.05-0.5,1.01-0.25,0.99-0.68c-0.02-0.43-1.01-0.2-0.99-0.7c-2.48-0.95-3.83-3.2-7.26-3.74c-0.41,0-1.53-0.68-0.83-0.43
		s0.45-0.45-0.27-0.88c-0.72-0.43-0.65-1.4-0.63-2.1c0.34,0.45,1.01,1.51,1.51,1.49c0.5-0.02,0.47,0.14,0.47,0.34
		c0.97,0.61,2.06,1.01,3.2,1.15c0.63,0,0.77,0,0.47,0.32c-0.52,0.72,0.7,1.62,1.33,0.7c1.74-0.99-0.77,0.81,0.9,1.38
		c1.15,0.83,1.49,0.36,2.41,1.44c0.54,0.9,1.35,0.29,1.69,0.7c0,0.47,1.01,0.18,1.01,0.68c-0.18,0.14,1.38,1.26,1.2,0.72
		c-0.23-1.24,1.06,0,0.83,0.81s0.99,0.86,1.58,0.41s0.43-0.32,0.29,0c-0.14,0.32,0,1.44,0.5,1.44c0.5,0,0.2-0.18,0-0.34
		c-0.18-0.61,0.68-0.32,0.32,0.34c-0.36,0.65,0.18,0.86,0.74,0.29c0.56-0.56,0.43-0.23,0.61,0c0.18,0.23,0.14,0.34,0,0.18
		c-1.42-0.25,0,1.31,1.04,1.08c1.6-0.18,1.22,1.22,2.41,1.58c0.47,0,0.83,0.41,0.83,0.61s3.36,1.2,3.25,1.67
		c0.43,0.79,2.66-0.7,1.74,0.41c-0.34,0.38-0.32,0.43,0.14,0.29c0.45-0.14,0.79,1.2,1.26,1.17c0.47-0.02,0.29,0.2,0.29,0.47
		c0,0.27,1.13,1.13,0.81,0.45c-0.32-0.68,1.62,0.45,0.86-0.59C58.82,64.99,58.77,64.61,58.98,64.47z M25.43,48.21
		c-1.17-0.65,0.11-0.92,0.25-0.11l0.07-0.02C25.9,48.55,25.88,48.57,25.43,48.21z M46.76,63.34v0.02c0.23,0.5-0.54,0.36-0.52,0
		S46.55,62.92,46.76,63.34z M37.06,56.58l0.02-0.02c0,0.18,0,0.34-0.34,0.34C35.89,56.9,36.82,55.75,37.06,56.58z M33,51.89
		c0.02,0.02,0.25,0.18,0.34,0.56l0.11-0.02C34.22,54.37,32.04,52.21,33,51.89z M31.2,52.72c0.32-0.63,1.1-0.65,0.88,0.02l0.11-0.02
		c-0.25,0.7,0.54,0.34,0.47,1.04s-0.11,0.47-0.43,0.16c-0.32-0.32-1.1,0.29-0.79-0.29C31.76,53.04,30.89,53.36,31.2,52.72z
		 M30.03,50.11c0.02,0.24,0.16,0.47,0.07,0.58c0.02,0.01,0.03,0.03,0.05,0.04l0.11-0.01c-0.03,0.04-0.07,0.04-0.11,0.01l-0.09,0.01
		c0.03-0.01,0.03-0.03,0.04-0.05C29.83,50.45,29.48,49.51,30.03,50.11z M29.35,51.1l0.11-0.02c0.32,0.83,0,0.97-0.47,0.18
		C28.52,50.47,29.1,50.4,29.35,51.1z M30.14,45.17c0.27-0.2,0.74,0.29,0.74,0.86h0.07C30.82,46.43,29.87,45.37,30.14,45.17z
		 M34.22,46.57h0.07c-0.01,0.09-0.05,0.17-0.12,0.24c-0.07,0.06-0.15,0.1-0.24,0.1C33.3,46.79,34.29,45.71,34.22,46.57z
		 M34.56,48.85v-0.02c-0.43,0.54-0.92,0.14-0.32-0.25c0.61-0.38-0.41-0.59-0.29-1.13C34.06,46.91,34.99,48.62,34.56,48.85z
		 M41.97,51.71c-0.02,0.13-0.08,0.26-0.17,0.35l0.11-0.11c-0.25,0.65-0.27-0.99,0-0.63C41.97,51.45,41.99,51.58,41.97,51.71z
		 M43.35,52.57c0.05-0.36,0.23-0.34,0.38,0.02l0.11-0.02C44.1,53.06,43.31,52.93,43.35,52.57z M47.03,57.08
		c-0.23,0.7-0.56,0.29-0.25-0.14c0.32-0.43,0.47-0.36,0.23,0.16L47.03,57.08z M52.82,61.09c-0.25,0.65-0.27-0.99,0-0.63
		c0.05,0.1,0.08,0.21,0.08,0.32S52.87,60.99,52.82,61.09z M54.27,61.7c0,0.5-0.29,0.32-0.5,0c-0.2-0.32,0.54-0.47,0.5-0.09V61.7z"/>
	<path class="st2" d="M38.79,59.31c-0.05-0.04-0.11-0.09-0.17-0.14C38.55,59.12,38.64,59.2,38.79,59.31z"/>
	<path class="st2" d="M68.63,42.35c0,0.38-0.16,0.54-0.43,0.43c-0.27-0.11-0.63,1.1-0.34,0.97c0.7-0.18,1.24,1.31,1.96,0.25
		c0.59-0.56,0.59-0.56,0.41,0s0,0.7,0.34,0.68c0.34-0.02,1.15,1.65,1.58,1.17c0.54-1.6-0.86-1.38-1.44-2.01s1.67,0.23,1.69-0.47
		c0.02-0.7-2.43-0.45-2.5-0.99c-0.07-0.54-0.27-0.27-0.27,0C69.6,43.5,68.38,40.8,68.63,42.35z"/>
	<path class="st2" d="M76.13,43.86c0.34-0.81-2.07-0.43-2.25-0.23c-0.27,0.16-0.2,0.25,0.2,0.25s0.38,0.7,0.99,0.59
		c0.2,0,0.36,0.11,0.29,0.36c-0.14,0.7,0.9,0.86,1.6,0.23c0.03-0.03,0.06-0.06,0.09-0.09l-0.41-0.83
		C76.18,44.27,76,44.13,76.13,43.86z"/>
	<path class="st2" d="M73.27,45.89c0.43-0.36,0.16-3.52-0.83-1.87C72.23,44.56,72.84,45.89,73.27,45.89z"/>
	<path class="st2" d="M72.87,56.67c-0.94-0.8-2.03-1.41-3.2-1.8c-0.25,0.27-1.29-1.65-1.53-1.35c-0.25,0.29-1.13-1.22-1.44-0.95
		c-0.32,0.27-0.5,0-0.74-0.43c-0.25-0.43-2.43-1.1-2.03-0.5c0,0.23,0,0.27-0.34,0.16c-1.1-0.18,0.86-0.9,0.27-1.13
		c-0.06,0-0.12-0.02-0.17-0.04c-0.05-0.03-0.1-0.06-0.14-0.11c-0.04-0.04-0.07-0.1-0.09-0.15c-0.02-0.06-0.03-0.12-0.03-0.17
		c0.34-0.83-2.25-0.52-2.82-0.95c0.18-0.41-0.65-0.14-0.29-0.79c0.45-1.01-1.74,0.16-1.74-0.81c0-0.25-1.56-2.03-1.33-1.33
		c0.23,0.7-0.77-0.52-0.95,0c-0.14,0-0.23,0-0.23-0.34c0-1.31-1.06,0.18-1.33,0c0.47-1.01-0.95-1.67-0.81-0.77
		c0.02,0.09-2.3-1.96-2.43-1.13c-0.06,0.12-0.09,0.24-0.09,0.37c0,0.13,0.03,0.26,0.09,0.37c0.25,0.74-0.99-0.41-0.56,1.24
		c0,0.29,0.14,0.7,0.29,1.87c0.68,0.45,3.86,2.01,4.37,2.39c0.52,0.38,0.92-0.86,0-0.52c-0.92,0.34-0.47,0,0-0.32
		c0.47-0.32,5.73-0.43,3,0c-1.29,0-1.35,2.25-0.23,2.25c1.13,0,0.52,1.06,1.06,1.2c0.54-0.27,0.38-2.41,1.33-1.83
		c0.79,0.18-1.17,1.58-0.29,1.51c0.41,0,0.41,0,0,0.29s0.34,0.74,0.68,0.54c0.34-0.2,2.43,0.97,2.66,0.14c0.2-0.34,0.29-0.34,0.29,0
		s0.88,0,0.95,0.88c0,0.36,0,0.52-0.2,0.38c-1.74-0.23,1.24,2.48,1.83,2.48s0.29,1.04,0.74,0.88s0.36,0,0.5,0.29
		c0.14,0.29,2.25,0.65,1.67-0.27c-0.14-0.47,0-0.56,0.2-0.41c0.2,0.16-0.11,1.53,0.56,2.01c0.41,0.29,0.79,0.47,0.95,0.46l0.08-0.04
		c0.02-0.04-0.01-0.12-0.09-0.24c-0.34-0.5,1.08,0.2,1.33-0.54c0.27-0.36,0.5-0.47,0.5-0.25c0,0.05-0.07,0.15-0.16,0.26l2.42-1.18
		c-0.46-0.29-0.94-0.54-1.27-0.81C73.32,56.85,73.45,57.5,72.87,56.67z M56.2,46.91c-0.68,0.32-0.72-1.71-0.36-1.01
		c0.12,0.3,0.31,0.55,0.56,0.74C56.63,46.79,56.54,46.91,56.2,46.91z M61.68,52.32c-0.83,0.72-0.16-1.08,0.23-0.56
		c0.07,0.09-0.02,0.32-0.29,0.56H61.68z"/>
	<path class="st2" d="M78.85,48.63l-0.16-0.33C78.63,48.42,78.67,48.53,78.85,48.63z"/>
	<path class="st2" d="M77.8,46.5l-0.09-0.19C77.69,46.44,77.73,46.51,77.8,46.5z"/>
	<path class="st2" d="M78.3,47.5l-0.26-0.53C77.88,47.62,78.02,47.68,78.3,47.5z"/>
	<path class="st2" d="M74.98,45.67c-0.52,0.02-0.54,0.16-0.32,0.63C75.14,47.9,75.95,45.49,74.98,45.67z"/>
	<path class="st2" d="M76.9,45.89c-0.05-0.27-0.25-0.23-0.56,0.14C75.37,47.24,77.15,46.97,76.9,45.89z"/>
	<path class="st2" d="M69.12,46.43c-0.36-0.16-0.68-0.14-0.83,0c-0.63-0.05-0.18-1.01-1.44-0.16c-0.72,0.36,0,0.74-0.56,1.13
		c-0.1,0.07-0.18,0.16-0.24,0.27c-0.06,0.11-0.09,0.22-0.1,0.34c0.41,0,1.71-2.07,2.12-0.65c0.14,0.38,0,0.45-0.36,0.34
		s-0.41,0,0,0.25c1.01,0.65,0.72-0.41,1.42-0.83C69.48,46.7,69.48,46.59,69.12,46.43z"/>
	<path class="st2" d="M72.73,49.7c-0.08,0.24-0.24,0.44-0.45,0.56c-0.88,0.54,0,0.68,0.99,0.18c1.87-1.1,2.64-0.18,0.99,0
		c-1.08-0.54,0.23,1.67,0.38,0.83c0.16-0.83,1.85-1.65,0.14-1.65c-0.27,0.18-0.83-1.26-0.81-0.47C73.97,49.77,72.82,49.3,72.73,49.7
		z"/>
	<path class="st2" d="M71.2,49.48c-0.25,0.16-0.41,1.08,0.18,0.5C71.96,49.39,71.62,49.09,71.2,49.48z"/>
	<path class="st2" d="M56.83,50.92c0.29,0,0.61-1.98,0-1.1C56.5,50.11,56.54,50.92,56.83,50.92z"/>
	<path class="st2" d="M76.31,50.54c0,0.43,1.35,0,1.33-0.16S76.25,50.18,76.31,50.54z"/>
	<path class="st2" d="M79.88,53.51c-0.79,0.25-0.52,0-0.23-0.36s-0.25-1.58,0.47-0.7c0.29,0.36,0.52,0.5,0.52,0.29
		c0-0.83-1.83-1.38-2.19-0.68c-0.34,0.54-0.52,2.25-0.25,2.25c0.27,0,2.25,0.54,1.94,0c-0.32-0.54,0.14-0.41,0.7,0.16
		c0.4,0.4,0.24,0.88,0.25,1.04l0.44-0.22C81.93,54.68,80.57,53.3,79.88,53.51z"/>
	<path class="st2" d="M76.79,52.2c-0.05-0.02-0.1-0.03-0.15-0.03c-0.05,0-0.1,0.01-0.15,0.03c-0.05,0.02-0.09,0.06-0.12,0.1
		c-0.03,0.04-0.05,0.09-0.06,0.14c-0.01,0.05-0.01,0.1,0,0.15c0,0.43,0.68,0.41,0.65,0c0.01-0.05,0.01-0.1,0-0.15
		c-0.01-0.05-0.03-0.1-0.06-0.14C76.88,52.25,76.84,52.22,76.79,52.2z"/>
	<path class="st2" d="M62.61,54.1c-0.05-0.23-0.7-0.2-0.65,0.23C61.95,54.78,62.65,54.32,62.61,54.1z"/>
	<path class="st2" d="M63.34,55.06c0.1,0.1,0.22,0.16,0.35,0.19c0.83-0.02-0.81-1.71-0.54-0.54C63.18,54.84,63.24,54.96,63.34,55.06
		z"/>
	<path class="st2" d="M20.09,56.78c0.41-1.24,1.19,2.77,2.71,0.88c0.54-0.54,0.61-0.74,0.27-0.74c-0.97-0.34-0.38-2.23-2.03-1.38
		c-0.86,0.47-1.17-0.36-1.15,0.95C19.88,57.12,19.88,57.23,20.09,56.78z M22.21,56.58c0,0.18-0.34,0.34-0.74,0.34
		C19.93,57.05,22.48,55.7,22.21,56.58z"/>
	<path class="st2" d="M23.74,57.41c-0.27,0.7-4.04,1.98-1.01,1.8c0.88,0.63,1.38,1.69,2.62,0.88c0.23,0.11,0.83-0.97,0.27-0.7
		c-0.56,0.27-1.01-0.52-0.52-0.36c0.5,0.16,1.69-0.9,0.52-1.01c-0.41,0-0.68-0.29-0.59-0.43C25.11,57.46,23.83,56.94,23.74,57.41z"
		/>
	<path class="st2" d="M15.85,58.97c0,0.08-0.04,0.14-0.1,0.16l0.15,0.31C16.14,59.03,16.01,58.06,15.85,58.97z"/>
	<path class="st2" d="M30.61,62.26c-0.63-0.54-0.56-1.26-0.95-1.2c-0.25,0.04-0.51-0.01-0.72-0.16c-1.01-0.36,0.72-0.72,0-1.1
		c-0.25-0.14-0.41-0.07-0.41,0.14c-0.14,0.5-0.74-0.25-0.68,0.79c0.07,1.04-1.53,1.35,0,1.47c0.86-0.2,0,0.92,0.9,0.63
		c0.27-0.11,0.52,0,0.52,0.18c0,0.18,1.04-0.59,1.53-0.2C31.31,63.19,31.25,62.8,30.61,62.26z M28.54,61.61
		c0.07-0.34,0.68-0.36,0.83,0C29.6,62.1,28.47,61.95,28.54,61.61z"/>
	<path class="st2" d="M25.7,60.26c-0.05,0.09-0.14,0.16-0.24,0.19s-0.21,0.03-0.3-0.01c-0.54,0.43,0.81,1.38,1.67,0.92
		s0.97-0.77,0.34-0.77c-0.16,0-0.23-0.16-0.14-0.34C27.21,59.69,25.77,59.98,25.7,60.26z"/>
	<path class="st2" d="M66.62,60.3c-0.16,0.54-1.28,0-1.6,0.54c-0.32,0.54-0.29,0.43,0.16,0.45c0.45,0.02,0.45,0,0.2,0.2
		c-0.97,0.29,0,1.71,0.54,1.17c-0.31-1.41,0.6-0.71,0.9-0.17l2.61-1.28C68.31,60.52,67.06,59.95,66.62,60.3z"/>
	<path class="st2" d="M17.79,60.77c-0.5-0.06-0.4-0.86-1.38-0.28l0.34,0.69c0.23-0.21,0.37-0.26,0.14,0.24c0,0.01,0,0.01-0.01,0.02
		l0.14,0.29C17.54,61.45,18.77,60.1,17.79,60.77z"/>
	<path class="st2" d="M22.05,62.58c-0.65-1.13-0.9-0.14-1.51-0.95c-0.13-0.27-0.35-0.47-0.63-0.58c-0.28-0.1-0.59-0.09-0.85,0.03
		h-0.09c-0.54,0.2-0.56,1.1,0,1.1c0.56,0-0.59,0.99,0,1.15s0.45-1.2,1.42-0.41c2.01,1.4-1.29,0.41,0,1.51c0.54,0.52,0.63,0.52,0.9,0
		c0.27-0.52,0.34-0.41,0.36,0.16c0.02,0.56,0,0.61,0.38,0c0.38-0.61,1.47-0.5,1.6-1.2C23.35,61.77,22.7,63.71,22.05,62.58z"/>
	<path class="st2" d="M32.55,62.26c0,0.41,0.92,0.41,0.99,0.2S32.55,61.83,32.55,62.26z"/>
	<path class="st2" d="M59.95,63.55c-0.47-0.68-1.01-0.77-1.01-0.2C58.93,63.84,60.94,64.49,59.95,63.55z"/>
	<path class="st2" d="M53.93,65.58c0,0.23-0.27,0.14-0.63-0.23s-2.32-3.54-2.37-1.24c0,0.72,0,0.79-1.01,0.59
		c-2.68-0.23,0.95,1.89,1.65,1.15s-0.56,1.26,0.5,0.65c0.29-0.11,0.5,0,0.41,0s1.4,0.79,2.14,0.38
		C56.16,66.43,54.24,64.88,53.93,65.58z"/>
	<path class="st2" d="M59.77,64.95c-1.06,0.52,0.59,0.25,0.83,0C61.21,64.54,60.67,64.54,59.77,64.95z"/>
	<path class="st2" d="M26.47,66.05c0.18-0.36-2.1-0.9-2.03-0.45c-0.29,0.97,1.6,0.95,2.03,1.8C28.38,69.41,26.29,66.41,26.47,66.05z
		 M25.54,66.05c0,0.52-0.32,0.34-0.52,0c-0.2-0.34,0.52-0.45,0.52-0.11V66.05z"/>
	<path class="st2" d="M36.25,66.48c0,0.92,0.43-0.32,0.18-0.43C36.18,65.94,36.23,66.12,36.25,66.48z"/>
	<path class="st2" d="M27.55,68.62c0.01,0.09,0.05,0.18,0.11,0.24s0.16,0.1,0.25,0.1C28.47,68.85,27.48,67.85,27.55,68.62z"/>
	<path class="st2" d="M27.26,81.32c0,0.35-0.47-0.37-0.99-0.66l0.63,1.3c0.02,0.01,0.04,0.02,0.07,0.04l0.88-0.43
		C27.71,81.12,27.33,80.73,27.26,81.32z"/>
	<path class="st2" d="M25.72,79.2c-0.56-0.38,0.11-2.25-0.83-1.87c-0.08,0.03-0.15,0.03-0.23,0.04l1.07,2.19
		C25.92,79.59,26.01,79.59,25.72,79.2z"/>
	<path class="st2" d="M24.33,76.7l0.09,0.18c0.01,0,0.01,0,0.02,0C24.54,76.79,24.47,76.73,24.33,76.7z"/>
	<path class="st2" d="M35.48,77.28c-1.08-0.11-1.06-1.2-2.03-0.41c-0.72,0.56,0.54,1.22,0.23,0.34c-0.14-0.2,0.18,0,0.61,0.43
		c0.24,0.17,0.38,0.36,0.47,0.54l1.17-0.57C35.98,77.45,35.95,77.33,35.48,77.28z"/>
	<path class="st2" d="M33.46,78.2c-0.06,0.12-0.09,0.24-0.09,0.37c0,0.09,0.03,0.17,0.06,0.26l0.64-0.31
		C34.01,78.2,33.81,77.93,33.46,78.2z"/>
	<path class="st2" d="M26.58,80.5c0.36,0.45,1.74,0.25,1.42-0.23C27.68,79.81,25.99,79.9,26.58,80.5z"/>
	<path class="st2" d="M28.54,80.3c-0.07,0.15,0.38,0.35,0.74,0.56l0.55-0.27C29.29,80.17,28.73,79.76,28.54,80.3z"/>
	<path class="st2" d="M28.13,81.43l0.75-0.37c-0.11-0.04-0.23-0.08-0.36-0.08C27.97,80.98,27.96,81.28,28.13,81.43z"/>
</g>
</svg>
