<svg width="24" height="24" viewBox="0 0 24 24" fill="none" xmlns="http://www.w3.org/2000/svg">
<path d="M19.94 17.31C19.934 16.5216 19.6179 15.7672 19.06 15.21L18.8 14.94C17.9487 14.0886 16.794 13.6101 15.59 13.61C14.8965 13.6149 14.213 13.7755 13.59 14.08L12.76 14.5C12.0515 14.1479 11.4034 13.6855 10.84 13.13C10.2844 12.5727 9.82481 11.9274 9.47999 11.22L9.88999 10.39C10.3141 9.53453 10.4565 8.56672 10.2966 7.62536C10.1367 6.684 9.68279 5.81746 8.99999 5.15L8.73999 4.89C8.18691 4.33085 7.43638 4.01124 6.64999 4H5.85999C5.06434 4 4.30127 4.31607 3.73867 4.87868C3.17606 5.44129 2.85999 6.20435 2.85999 7V7.07C2.89305 8.68408 3.1488 10.2859 3.61999 11.83C4.22688 13.8308 5.30744 15.6558 6.76999 17.15C8.25562 18.6208 10.0786 19.7057 12.08 20.31C13.6259 20.7896 15.2317 21.0488 16.85 21.08H16.93C17.7256 21.08 18.4887 20.7639 19.0513 20.2013C19.6139 19.6387 19.93 18.8756 19.93 18.08V17.27L19.94 17.31ZM16.93 19.11C15.4988 19.0859 14.0782 18.8604 12.71 18.44C11.0171 17.9249 9.47339 17.009 8.20999 15.77C6.9741 14.5076 6.06452 12.9631 5.55999 11.27C5.13959 9.90178 4.91404 8.48115 4.88999 7.05V7C4.88999 6.73478 4.99534 6.48043 5.18288 6.29289C5.37042 6.10536 5.62477 6 5.88999 6H6.67999C6.81229 6.00055 6.94318 6.02735 7.06505 6.07885C7.18693 6.13034 7.29737 6.20551 7.38999 6.3L7.64999 6.56C8.02606 6.93508 8.274 7.4194 8.35841 7.9438C8.44281 8.4682 8.35937 9.00586 8.11999 9.48L7.48999 10.73C7.43056 10.8603 7.39981 11.0018 7.39981 11.145C7.39981 11.2882 7.43056 11.4297 7.48999 11.56C7.95295 12.6818 8.63259 13.7012 9.48999 14.56C10.3448 15.4222 11.3653 16.1025 12.49 16.56C12.6189 16.618 12.7586 16.6479 12.9 16.6479C13.0413 16.6479 13.1811 16.618 13.31 16.56L14.57 15.93C14.9195 15.7615 15.302 15.6727 15.69 15.67C16.3636 15.6722 17.0096 15.9378 17.49 16.41L17.75 16.68C17.9347 16.8663 18.0389 17.1177 18.04 17.38V18.17C18.0327 18.306 17.9976 18.4391 17.9371 18.561C17.8765 18.683 17.7916 18.7913 17.6877 18.8794C17.5837 18.9674 17.4629 19.0332 17.3326 19.0729C17.2024 19.1126 17.0653 19.1252 16.93 19.11Z" fill="white"/>
</svg>
