<svg width="33" height="34" viewBox="0 0 33 34" fill="none" xmlns="http://www.w3.org/2000/svg">
<path d="M0.0628662 33.5312L2.39467 24.7355C0.514128 21.3091 -0.083338 17.3108 0.711905 13.4742C1.50715 9.63771 3.64176 6.22029 6.72403 3.8491C9.8063 1.47791 13.6295 0.311999 17.492 0.565314C21.3545 0.818628 24.9973 2.47418 27.7519 5.22816C30.5065 7.98215 32.1881 11.6498 32.4882 15.5582C32.7883 19.4666 31.6867 23.3535 29.3855 26.5056C27.0844 29.6578 23.7381 31.8637 19.9606 32.7187C16.1832 33.5737 12.228 33.0204 8.82089 31.1603L0.0628662 33.5312ZM9.24318 27.8689L9.78482 28.1943C12.2527 29.6758 15.1351 30.2888 17.9829 29.9379C20.8307 29.587 23.4839 28.2919 25.5291 26.2543C27.5742 24.2168 28.8964 21.5513 29.2896 18.6732C29.6829 15.7951 29.125 12.8661 27.703 10.3426C26.281 7.81913 24.0747 5.84296 21.428 4.72203C18.7813 3.60111 15.8428 3.39839 13.0705 4.14549C10.2982 4.89258 7.8477 6.54751 6.10098 8.85238C4.35427 11.1573 3.40942 13.9826 3.41368 16.8881C3.41136 19.2973 4.06921 21.6598 5.31401 23.7127L5.65368 24.2799L4.35008 29.1892L9.24318 27.8689Z" fill="#00D95F"/>
<path fill-rule="evenodd" clip-rule="evenodd" d="M22.3891 19.1466C22.0716 18.8873 21.6998 18.7047 21.3021 18.6129C20.9044 18.521 20.4912 18.5223 20.0941 18.6167C19.4973 18.8677 19.1118 19.8161 18.7262 20.2903C18.6449 20.4039 18.5254 20.4837 18.3902 20.5145C18.255 20.5453 18.1133 20.5251 17.9918 20.4576C15.8072 19.591 13.976 18.0018 12.7957 15.9482C12.695 15.82 12.6474 15.6573 12.6628 15.4943C12.6782 15.3313 12.7555 15.1807 12.8783 15.0742C13.3084 14.643 13.6241 14.109 13.7964 13.5214C13.8346 12.8734 13.688 12.2279 13.3741 11.6619C13.1314 10.8684 12.6695 10.1618 12.0429 9.62565C11.7198 9.47845 11.3615 9.42909 11.0113 9.48354C10.661 9.53798 10.3338 9.6939 10.0692 9.93248C9.60965 10.334 9.24493 10.8348 9.00184 11.398C8.75876 11.9612 8.6435 12.5724 8.66457 13.1867C8.66599 13.5317 8.70915 13.8752 8.79309 14.2095C9.00627 15.0127 9.33409 15.7801 9.7662 16.4875C10.078 17.0293 10.4181 17.5538 10.7852 18.0588C11.9782 19.7175 13.4779 21.1258 15.201 22.2056C16.0656 22.7543 16.9897 23.2005 17.9551 23.5352C18.9578 23.9956 20.065 24.1723 21.159 24.0466C21.7823 23.951 22.3729 23.7018 22.8787 23.3208C23.3846 22.9398 23.7902 22.4387 24.06 21.8616C24.2184 21.513 24.2665 21.1233 24.1977 20.7459C24.0324 19.9741 23.0134 19.5186 22.3891 19.1466Z" fill="#00D95F"/>
</svg>
