<svg width="37" height="37" viewBox="0 0 37 37" fill="none" xmlns="http://www.w3.org/2000/svg">
<path fill-rule="evenodd" clip-rule="evenodd" d="M36.0629 18.0314C36.0629 27.9899 27.9899 36.0629 18.0314 36.0629C8.07296 36.0629 0 27.9899 0 18.0314C0 8.07296 8.07296 0 18.0314 0C27.9899 0 36.0629 8.07296 36.0629 18.0314ZM19.7593 12.4985C16.6616 13.8366 7.72977 17.6365 7.72977 17.6365C5.61299 18.4928 6.85202 19.2956 6.85202 19.2956C6.85202 19.2956 8.65904 19.9379 10.208 20.4195C11.7568 20.9012 12.5829 20.3661 12.5829 20.3661C12.5829 20.3661 16.197 17.9041 19.8626 15.2816C22.444 13.4619 21.8245 14.9605 21.2049 15.6028C19.8626 16.9943 17.6426 19.1886 15.7839 20.9548C14.9579 21.7041 15.3709 22.3463 15.7323 22.6674C16.7834 23.5894 19.259 25.2661 20.3829 26.0274C20.6944 26.2383 20.902 26.379 20.9468 26.4138C21.2049 26.628 22.6506 27.5913 23.5283 27.3772C24.406 27.1631 24.5092 25.9321 24.5092 25.9321C24.5092 25.9321 25.1804 21.5435 25.8 17.5295C25.9147 16.7413 26.0295 15.9698 26.1365 15.2503C26.4146 13.3802 26.6404 11.8622 26.6777 11.3211C26.8326 9.50143 24.9739 10.2507 24.9739 10.2507C24.9739 10.2507 20.9468 11.9634 19.7593 12.4985Z" fill="#34AADF"/>
</svg>
