<svg width="102" height="66" viewBox="0 0 102 66" fill="none" xmlns="http://www.w3.org/2000/svg">
<path d="M40.5554 46.742H38.2215V42.9531H34.1672V58.9866H40.5554C42.6679 58.9866 44.4515 58.4814 45.7039 57.3194C46.2921 56.7378 46.7596 56.0461 47.0797 55.2838C47.3997 54.5215 47.5659 53.7037 47.5688 52.8772C47.5718 52.0506 47.4114 51.2316 47.0968 50.4671C46.7822 49.7026 46.3196 49.0075 45.7355 48.4218C44.4832 47.2409 42.6869 46.742 40.5554 46.742ZM42.9019 54.623C42.573 54.9261 41.8457 55.204 40.587 55.204H38.2215V50.5373H40.5554C41.3656 50.4635 42.1765 50.6709 42.8513 51.1246C43.0877 51.3401 43.2686 51.6092 43.3787 51.9093C43.4888 52.2094 43.5249 52.5316 43.4838 52.8485C43.5237 53.1688 43.4923 53.494 43.3917 53.8007C43.2911 54.1075 43.1239 54.3883 42.9019 54.623Z" fill="black"/>
<path d="M95.3974 42.9531C93.2849 42.9531 91.5013 43.4583 90.2489 44.6202C89.0728 45.8032 88.4128 47.4023 88.4128 49.0691C88.4128 50.7358 89.0728 52.335 90.2489 53.5179C90.6274 53.863 91.0534 54.1522 91.5139 54.3767L88.1428 58.6834L88.0605 58.8792H92.703L95.6251 55.1913H97.7819V58.9802H101.836V42.9531H95.3974ZM97.7377 51.3961H95.3974C94.5873 51.4689 93.7768 51.2615 93.1015 50.8088C92.8668 50.592 92.6871 50.3227 92.5771 50.023C92.4671 49.7232 92.4301 49.4017 92.469 49.0849C92.4299 48.7641 92.4624 48.4386 92.5641 48.1319C92.6658 47.8251 92.8342 47.5446 93.0572 47.3104C93.3861 47.0073 94.1135 46.7294 95.3722 46.7294H97.7123L97.7377 51.3961Z" fill="black"/>
<path d="M79.2964 46.742H76.9625V42.9531H72.9082V58.9866H79.2964C81.4089 58.9866 83.1925 58.4814 84.4448 57.3194C85.0331 56.7378 85.5006 56.0461 85.8206 55.2838C86.1406 54.5215 86.3069 53.7037 86.3098 52.8772C86.3128 52.0506 86.1523 51.2316 85.8377 50.4671C85.5231 49.7026 85.0605 49.0075 84.4765 48.4218C83.2241 47.2409 81.4279 46.742 79.2964 46.742ZM81.6113 54.623C81.2824 54.9261 80.555 55.204 79.2964 55.204H76.9625V50.5373H79.2964C80.1066 50.4635 80.9175 50.6709 81.5923 51.1246C81.8287 51.3401 82.0096 51.6092 82.1197 51.9093C82.2298 52.2094 82.2658 52.5316 82.2248 52.8485C82.2606 53.1712 82.2241 53.4978 82.118 53.8047C82.0119 54.1115 81.8388 54.3911 81.6113 54.623Z" fill="black"/>
<path d="M28.0522 44.0078C26.9172 43.3605 25.634 43.0168 24.3268 43.0101H24.1687C22.8086 42.9899 21.4707 43.3556 20.3105 44.0647L20.222 44.1278C20.1386 44.1887 20.0603 44.2563 19.988 44.3299V43.1995H15.959V65.4152H19.988V57.9068C20.0641 57.9788 20.1443 58.0463 20.2283 58.1089C21.4123 58.8348 22.7795 59.2073 24.1687 59.1824C25.5139 59.1943 26.8376 58.8453 28.0016 58.1721C29.1792 57.485 30.1342 56.4745 30.7529 55.2609C31.4184 53.9623 31.753 52.52 31.727 51.0615C31.7556 49.6101 31.4185 48.1748 30.7466 46.8874C30.1458 45.688 29.2099 44.6879 28.0522 44.0078ZM27.1604 53.4801C26.8633 54.0711 26.4022 54.5643 25.8322 54.901C25.2218 55.2399 24.5317 55.41 23.8335 55.3935C23.1416 55.4028 22.4601 55.2261 21.8601 54.882C21.2726 54.5365 20.7963 54.0303 20.4876 53.4233C20.138 52.6994 19.9564 51.9062 19.9564 51.1026C19.9564 50.299 20.138 49.5057 20.4876 48.7819C20.7965 48.1765 21.2728 47.6724 21.8601 47.3294C22.4589 46.9824 23.1413 46.8055 23.8335 46.8179C24.5267 46.8039 25.2115 46.9715 25.8195 47.3042C26.3946 47.6288 26.8577 48.1198 27.1478 48.7124C27.5187 49.434 27.6994 50.2382 27.6727 51.0489C27.7099 51.8813 27.5335 52.7095 27.1604 53.4549V53.4801Z" fill="black"/>
<path d="M61.181 43.0479L54.9067 58.6835L54.8245 58.8792H59.195L62.9583 49.1101L66.728 58.8792H71.0669L64.7103 43.0479H61.181Z" fill="black"/>
<path d="M7.67845 49.2427L13.4847 43.1489H7.83025L4.05427 47.3293V42.7637H0V58.9802H4.05427V53.0443L5.00301 52.0528L9.8732 58.8792H14.5157L14.4335 58.6834L7.67845 49.2427Z" fill="black"/>
<path d="M52.8834 42.9785H48.8291V58.9741H52.8834V42.9785Z" fill="black"/>
<path d="M2.78352 29.1805C21.1954 26.6546 41.22 25.9031 51.1059 35.4133C60.8715 26.0168 80.5357 26.6167 98.7642 29.0984L101.806 24.3497C94.7984 22.1142 88.3533 20.1945 84.0967 19.2978C71.3203 16.6771 59.4738 16.9549 51.1249 25.9473C42.7507 16.9549 30.8851 16.696 18.1404 19.3104C13.7889 20.2008 7.17934 22.171 0.0195312 24.4696L2.78352 29.1805Z" fill="#84A2FF"/>
<path d="M97.8151 21.0976C99.4914 19.6592 100.738 17.7871 101.417 15.6872C102.097 13.5874 102.183 11.341 101.667 9.19532C101.151 7.04961 100.052 5.08764 98.4908 3.5252C96.9299 1.96276 94.9676 0.860371 92.8198 0.33929C90.672 -0.181792 88.4219 -0.101386 86.3169 0.57167C84.212 1.24472 82.3337 2.48436 80.8887 4.15421C79.4437 5.82407 78.4879 7.85947 78.1266 10.0365C77.7652 12.2136 78.0122 14.448 78.8404 16.494C80.8138 16.7529 82.6986 17.1255 84.4443 17.4539C87.5624 18.0854 91.8634 19.2599 97.8151 21.0976Z" fill="#FFA100"/>
</svg>
