<svg width="101" height="83" viewBox="0 0 101 83" fill="none" xmlns="http://www.w3.org/2000/svg">
<path fill-rule="evenodd" clip-rule="evenodd" d="M101 12.9631C85.8725 20.1649 78.3088 28.6269 78.3088 38.3492C84.7566 39.0694 90.0884 41.62 94.3042 46.0011C98.5201 50.3822 100.628 55.4533 100.628 61.2147C100.628 67.3363 98.5821 72.4975 94.4902 76.6985C90.3984 80.8995 85.2526 83 79.0528 83C72.109 83 66.0953 80.2694 61.0114 74.808C55.9276 69.3467 53.3857 62.7151 53.3857 54.9132C53.3857 31.5075 66.9011 13.2032 93.9323 0L101 12.9631ZM47.6143 12.9631C32.3628 20.1649 24.7371 28.6269 24.7371 38.3492C31.3089 39.0694 36.7027 41.62 40.9185 46.0011C45.1344 50.3822 47.2423 55.4533 47.2423 61.2147C47.2423 67.3363 45.1654 72.4975 41.0115 76.6985C36.8577 80.8995 31.6809 83 25.4811 83C18.5373 83 12.5546 80.2694 7.53273 74.808C2.51089 69.3467 0 62.7151 0 54.9132C0 31.5075 13.4534 13.2032 40.3605 0L47.6143 12.9631Z" fill="#FDF4E5"/>
</svg>
