<?xml version="1.0" encoding="utf-8"?><svg viewBox="0 0 102 66" xmlns="http://www.w3.org/2000/svg" xmlns:xlink="http://www.w3.org/1999/xlink"><style>:root>svg{display:none}:root>svg:target{display:block}</style><svg fill="none" viewBox="0 0 102 66" id="logo" xmlns="http://www.w3.org/2000/svg"><path d="M40.555 46.742h-2.334v-3.789h-4.054v16.034h6.388c2.113 0 3.897-.506 5.149-1.668a6.284 6.284 0 0 0 1.865-4.442 6.273 6.273 0 0 0-1.834-4.455c-1.252-1.181-3.048-1.68-5.18-1.68Zm2.347 7.881c-.329.303-1.056.581-2.315.581h-2.366v-4.667h2.334a3.54 3.54 0 0 1 2.296.588 1.989 1.989 0 0 1 .633 1.724 2.188 2.188 0 0 1-.582 1.774ZM95.397 42.953c-2.112 0-3.896.505-5.148 1.667a6.31 6.31 0 0 0 0 8.898 5.37 5.37 0 0 0 1.265.859l-3.371 4.306-.082.196h4.642l2.922-3.688h2.157v3.79h4.054V42.952h-6.439Zm2.34 8.443h-2.34a3.552 3.552 0 0 1-2.296-.587 2.015 2.015 0 0 1-.632-1.724 2.187 2.187 0 0 1 .588-1.775c.33-.303 1.056-.58 2.315-.58h2.34l.026 4.666ZM79.296 46.742h-2.334v-3.789h-4.054v16.034h6.388c2.113 0 3.896-.506 5.149-1.668a6.281 6.281 0 0 0 1.393-6.852 6.283 6.283 0 0 0-1.361-2.045c-1.253-1.181-3.05-1.68-5.18-1.68Zm2.315 7.881c-.329.303-1.056.581-2.315.581h-2.334v-4.667h2.334a3.54 3.54 0 0 1 2.296.588 1.989 1.989 0 0 1 .633 1.724 2.188 2.188 0 0 1-.614 1.774ZM28.052 44.008a7.599 7.599 0 0 0-3.725-.998h-.158a7.194 7.194 0 0 0-3.858 1.055l-.089.063c-.083.06-.162.128-.234.202V43.2h-4.029v22.215h4.029v-7.508c.076.072.156.14.24.202a7.289 7.289 0 0 0 3.94 1.073 7.523 7.523 0 0 0 3.834-1.01 7.11 7.11 0 0 0 2.75-2.911c.666-1.299 1.001-2.741.975-4.2a8.653 8.653 0 0 0-.98-4.174 6.95 6.95 0 0 0-2.695-2.88Zm-.892 9.472a3.45 3.45 0 0 1-1.328 1.421c-.61.339-1.3.509-1.998.492a3.862 3.862 0 0 1-1.974-.511 3.57 3.57 0 0 1-1.372-1.459 5.336 5.336 0 0 1 0-4.641 3.551 3.551 0 0 1 1.372-1.453 3.8 3.8 0 0 1 1.974-.511 3.97 3.97 0 0 1 1.986.486 3.266 3.266 0 0 1 1.328 1.408c.37.722.551 1.526.525 2.337.037.832-.14 1.66-.513 2.406v.025ZM61.181 43.048l-6.274 15.636-.082.195h4.37l3.763-9.769 3.77 9.77h4.339L64.71 43.047h-3.529ZM7.678 49.243l5.807-6.094H7.83l-3.776 4.18v-4.565H0V58.98h4.054v-5.936l.949-.991 4.87 6.826h4.643l-.082-.196-6.756-9.44ZM52.883 42.978H48.83v15.996h4.054V42.98Z" fill="#000"/><path d="M2.784 29.18c18.411-2.525 38.436-3.277 48.322 6.233 9.765-9.396 29.43-8.796 47.658-6.315l3.042-4.748c-7.008-2.236-13.453-4.155-17.71-5.052-12.776-2.62-24.622-2.343-32.971 6.65-8.374-8.993-20.24-9.252-32.985-6.638-4.351.89-10.96 2.861-18.12 5.16l2.764 4.71Z" fill="#84A2FF"/><path d="M97.815 21.098a11.991 11.991 0 0 0 3.852-11.903 11.987 11.987 0 0 0-3.176-5.67A12.023 12.023 0 0 0 86.317.572a12.019 12.019 0 0 0-5.428 3.582 11.99 11.99 0 0 0-2.049 12.34c1.974.259 3.859.631 5.604.96 3.118.631 7.42 1.806 13.371 3.644Z" fill="#FFA100"/></svg></svg>