<svg width="22" height="21" viewBox="0 0 22 21" fill="none" xmlns="http://www.w3.org/2000/svg">
<path d="M5.40371 20.0781C5.65309 20.0781 5.90124 20.0016 6.11482 19.8491L11.1364 16.2479L16.1579 19.8491C16.366 19.9988 16.616 20.0789 16.8723 20.078C17.1286 20.0771 17.3781 19.9953 17.5851 19.8442C17.7923 19.6939 17.9468 19.4822 18.0267 19.239C18.1066 18.9959 18.1078 18.7337 18.0301 18.4899L16.1573 12.4455L21.1338 8.93871C21.3401 8.7865 21.4932 8.5733 21.5717 8.32927C21.6501 8.08523 21.6498 7.82271 21.5709 7.57885C21.4913 7.33557 21.3373 7.12346 21.1306 6.97248C20.9239 6.82151 20.675 6.73931 20.419 6.7375L14.2555 6.72824L12.2932 0.833844C12.2122 0.591023 12.0569 0.379832 11.8492 0.23018C11.6415 0.0805281 11.392 0 11.1361 0C10.8801 0 10.6306 0.0805281 10.423 0.23018C10.2153 0.379832 10.06 0.591023 9.97898 0.833844L8.04998 6.72824L1.85498 6.7375C1.59872 6.73894 1.34943 6.8211 1.14253 6.97231C0.935635 7.12351 0.781643 7.33606 0.702433 7.57977C0.623222 7.82349 0.622824 8.08596 0.701292 8.32991C0.779762 8.57386 0.933111 8.78688 1.13955 8.93871L6.11605 12.4455L4.24323 18.4899C4.16537 18.7337 4.16642 18.9958 4.24622 19.239C4.32602 19.4821 4.4805 19.6939 4.68767 19.8442C4.89531 19.9965 5.14619 20.0785 5.40371 20.0781Z" fill="#FFAC33"/>
</svg>
