<svg width="29" height="30" viewBox="0 0 29 30" fill="none" xmlns="http://www.w3.org/2000/svg">
<path d="M2.68303 8.5V2.12L1.32803 2.935V2.11L2.68303 1.3H3.42803V8.5H2.68303ZM7.67451 8.65C7.23118 8.65 6.83118 8.54667 6.47451 8.34C6.12118 8.13333 5.84118 7.85333 5.63451 7.5C5.42785 7.14333 5.32451 6.74333 5.32451 6.3V3.5C5.32451 3.05667 5.42785 2.65833 5.63451 2.305C5.84118 1.94833 6.12118 1.66667 6.47451 1.46C6.83118 1.25333 7.23118 1.15 7.67451 1.15C8.11785 1.15 8.51618 1.25333 8.86951 1.46C9.22618 1.66667 9.50785 1.94833 9.71451 2.305C9.92118 2.65833 10.0245 3.05667 10.0245 3.5V6.3C10.0245 6.74333 9.92118 7.14333 9.71451 7.5C9.50785 7.85333 9.22618 8.13333 8.86951 8.34C8.51618 8.54667 8.11785 8.65 7.67451 8.65ZM7.67451 7.94C7.97118 7.94 8.24118 7.86833 8.48451 7.725C8.72785 7.57833 8.92118 7.38333 9.06451 7.14C9.20785 6.89667 9.27951 6.62833 9.27951 6.335V3.465C9.27951 3.16833 9.20785 2.89833 9.06451 2.655C8.92118 2.41167 8.72785 2.21833 8.48451 2.075C8.24118 1.92833 7.97118 1.855 7.67451 1.855C7.37785 1.855 7.10785 1.92833 6.86451 2.075C6.62118 2.21833 6.42785 2.41167 6.28451 2.655C6.14118 2.89833 6.06951 3.16833 6.06951 3.465V6.335C6.06951 6.62833 6.14118 6.89667 6.28451 7.14C6.42785 7.38333 6.62118 7.57833 6.86451 7.725C7.10785 7.86833 7.37785 7.94 7.67451 7.94ZM11.828 7.7V6.845H12.683V7.7H11.828ZM11.833 4.755V3.9H12.688V4.755H11.833ZM16.7663 8.65C16.323 8.65 15.923 8.54667 15.5663 8.34C15.213 8.13333 14.933 7.85333 14.7263 7.5C14.5196 7.14333 14.4163 6.74333 14.4163 6.3V3.5C14.4163 3.05667 14.5196 2.65833 14.7263 2.305C14.933 1.94833 15.213 1.66667 15.5663 1.46C15.923 1.25333 16.323 1.15 16.7663 1.15C17.2096 1.15 17.608 1.25333 17.9613 1.46C18.318 1.66667 18.5996 1.94833 18.8063 2.305C19.013 2.65833 19.1163 3.05667 19.1163 3.5V6.3C19.1163 6.74333 19.013 7.14333 18.8063 7.5C18.5996 7.85333 18.318 8.13333 17.9613 8.34C17.608 8.54667 17.2096 8.65 16.7663 8.65ZM16.7663 7.94C17.063 7.94 17.333 7.86833 17.5763 7.725C17.8196 7.57833 18.013 7.38333 18.1563 7.14C18.2996 6.89667 18.3713 6.62833 18.3713 6.335V3.465C18.3713 3.16833 18.2996 2.89833 18.1563 2.655C18.013 2.41167 17.8196 2.21833 17.5763 2.075C17.333 1.92833 17.063 1.855 16.7663 1.855C16.4696 1.855 16.1996 1.92833 15.9563 2.075C15.713 2.21833 15.5196 2.41167 15.3763 2.655C15.233 2.89833 15.1613 3.16833 15.1613 3.465V6.335C15.1613 6.62833 15.233 6.89667 15.3763 7.14C15.5196 7.38333 15.713 7.57833 15.9563 7.725C16.1996 7.86833 16.4696 7.94 16.7663 7.94ZM22.8698 8.65C22.4265 8.65 22.0265 8.54667 21.6698 8.34C21.3165 8.13333 21.0365 7.85333 20.8298 7.5C20.6232 7.14333 20.5198 6.74333 20.5198 6.3V3.5C20.5198 3.05667 20.6232 2.65833 20.8298 2.305C21.0365 1.94833 21.3165 1.66667 21.6698 1.46C22.0265 1.25333 22.4265 1.15 22.8698 1.15C23.3132 1.15 23.7115 1.25333 24.0648 1.46C24.4215 1.66667 24.7032 1.94833 24.9098 2.305C25.1165 2.65833 25.2198 3.05667 25.2198 3.5V6.3C25.2198 6.74333 25.1165 7.14333 24.9098 7.5C24.7032 7.85333 24.4215 8.13333 24.0648 8.34C23.7115 8.54667 23.3132 8.65 22.8698 8.65ZM22.8698 7.94C23.1665 7.94 23.4365 7.86833 23.6798 7.725C23.9232 7.57833 24.1165 7.38333 24.2598 7.14C24.4032 6.89667 24.4748 6.62833 24.4748 6.335V3.465C24.4748 3.16833 24.4032 2.89833 24.2598 2.655C24.1165 2.41167 23.9232 2.21833 23.6798 2.075C23.4365 1.92833 23.1665 1.855 22.8698 1.855C22.5732 1.855 22.3032 1.92833 22.0598 2.075C21.8165 2.21833 21.6232 2.41167 21.4798 2.655C21.3365 2.89833 21.2648 3.16833 21.2648 3.465V6.335C21.2648 6.62833 21.3365 6.89667 21.4798 7.14C21.6232 7.38333 21.8165 7.57833 22.0598 7.725C22.3032 7.86833 22.5732 7.94 22.8698 7.94ZM2.68303 26.5V20.12L1.32803 20.935V20.11L2.68303 19.3H3.42803V26.5H2.68303ZM7.67451 26.65C7.23118 26.65 6.83118 26.5467 6.47451 26.34C6.12118 26.1333 5.84118 25.8533 5.63451 25.5C5.42785 25.1433 5.32451 24.7433 5.32451 24.3V21.5C5.32451 21.0567 5.42785 20.6583 5.63451 20.305C5.84118 19.9483 6.12118 19.6667 6.47451 19.46C6.83118 19.2533 7.23118 19.15 7.67451 19.15C8.11785 19.15 8.51618 19.2533 8.86951 19.46C9.22618 19.6667 9.50785 19.9483 9.71451 20.305C9.92118 20.6583 10.0245 21.0567 10.0245 21.5V24.3C10.0245 24.7433 9.92118 25.1433 9.71451 25.5C9.50785 25.8533 9.22618 26.1333 8.86951 26.34C8.51618 26.5467 8.11785 26.65 7.67451 26.65ZM7.67451 25.94C7.97118 25.94 8.24118 25.8683 8.48451 25.725C8.72785 25.5783 8.92118 25.3833 9.06451 25.14C9.20785 24.8967 9.27951 24.6283 9.27951 24.335V21.465C9.27951 21.1683 9.20785 20.8983 9.06451 20.655C8.92118 20.4117 8.72785 20.2183 8.48451 20.075C8.24118 19.9283 7.97118 19.855 7.67451 19.855C7.37785 19.855 7.10785 19.9283 6.86451 20.075C6.62118 20.2183 6.42785 20.4117 6.28451 20.655C6.14118 20.8983 6.06951 21.1683 6.06951 21.465V24.335C6.06951 24.6283 6.14118 24.8967 6.28451 25.14C6.42785 25.3833 6.62118 25.5783 6.86451 25.725C7.10785 25.8683 7.37785 25.94 7.67451 25.94ZM11.828 25.7V24.845H12.683V25.7H11.828ZM11.833 22.755V21.9H12.688V22.755H11.833ZM17.5863 26.5V25.105H14.2163V24.405L16.6263 19.3H17.4513L15.0413 24.405H17.5863V22.305H18.3263V24.405H19.1113V25.105H18.3263V26.5H17.5863ZM22.4397 26.65C22.0664 26.65 21.7214 26.5733 21.4047 26.42C21.0881 26.2667 20.8181 26.055 20.5947 25.785C20.3714 25.515 20.2114 25.205 20.1147 24.855L20.8197 24.665C20.8831 24.925 20.9981 25.15 21.1647 25.34C21.3314 25.5267 21.5264 25.6717 21.7497 25.775C21.9764 25.8783 22.2131 25.93 22.4597 25.93C22.7797 25.93 23.0664 25.8533 23.3197 25.7C23.5764 25.5433 23.7797 25.3367 23.9297 25.08C24.0797 24.8233 24.1547 24.5417 24.1547 24.235C24.1547 23.9183 24.0764 23.6333 23.9197 23.38C23.7631 23.1233 23.5564 22.92 23.2997 22.77C23.0431 22.62 22.7631 22.545 22.4597 22.545C22.1197 22.545 21.8264 22.62 21.5797 22.77C21.3331 22.9167 21.1364 23.1017 20.9897 23.325L20.3197 23.045L20.5397 19.3H24.3847V20.005H20.8647L21.2297 19.66L21.0347 22.855L20.8497 22.61C21.0564 22.3733 21.3064 22.1883 21.5997 22.055C21.8931 21.9217 22.2014 21.855 22.5247 21.855C22.9681 21.855 23.3681 21.9617 23.7247 22.175C24.0814 22.385 24.3647 22.67 24.5747 23.03C24.7847 23.39 24.8897 23.7917 24.8897 24.235C24.8897 24.675 24.7781 25.0783 24.5547 25.445C24.3314 25.8083 24.0347 26.1 23.6647 26.32C23.2947 26.54 22.8864 26.65 22.4397 26.65Z" fill="#84A2FF"/>
<line x1="0.728027" y1="14.25" x2="23.728" y2="14.25" stroke="#84A2FF" stroke-width="0.5"/>
</svg>
